<?xml version="1.0" encoding="utf-8"?>
<!-- Generator: Adobe Illustrator 27.0.0, SVG Export Plug-In . SVG Version: 6.00 Build 0)  -->
<svg version="1.1" id="Layer_1" xmlns="http://www.w3.org/2000/svg" xmlns:xlink="http://www.w3.org/1999/xlink" x="0px" y="0px"
	 viewBox="0 0 40 40" style="enable-background:new 0 0 40 40;" xml:space="preserve">
<style type="text/css">
	.st0{fill:none;stroke:#C9CACC;stroke-width:2.0575;stroke-miterlimit:10;}
	.st1{fill:#FFFFFF;}
</style>
<circle class="st0" cx="20.5" cy="19.7" r="18.2"/>
<path class="st1" d="M20.6,4.2C11.9,4,4.7,11.2,4.9,19.9c0.1,8.4,7,15.3,15.4,15.4c8.7,0.1,15.9-7,15.8-15.8
	C35.9,11.1,29.1,4.3,20.6,4.2z M33.4,18.5h-7h-0.1c0,0,0-0.1-0.1-0.1c-0.3-1.3-1.1-2.5-2-3.4c0,0,0-0.1-0.1-0.1v-0.1l3.1-6.2
	c0,0,0,0,0-0.1c0,0,0,0,0.1,0c0,0,0,0,0.1,0c0,0,0,0,0.1,0c1.7,1.1,3.1,2.5,4.1,4.2c1.1,1.7,1.7,3.5,1.9,5.6
	C33.5,18.3,33.5,18.3,33.4,18.5C33.5,18.4,33.5,18.4,33.4,18.5C33.5,18.5,33.5,18.5,33.4,18.5C33.5,18.5,33.4,18.5,33.4,18.5z
	 M16.9,20c-0.1-0.8,0.1-1.4,0.5-2.1s1-1.2,1.6-1.4s1.4-0.4,2.1-0.3c0.7,0.1,1.4,0.5,1.9,1c0.5,0.5,0.9,1.2,1,1.9
	c0.1,0.8,0,1.4-0.3,2.1c-0.3,0.7-0.9,1.2-1.4,1.6c-0.6,0.4-1.3,0.6-2.1,0.5c-0.9-0.1-1.6-0.5-2.2-1.1C17.3,21.7,16.9,20.9,16.9,20z
	 M13.6,8.7l3.1,6.2V15c0,0,0,0.1-0.1,0.1c-1.1,0.9-1.7,2-2,3.4c0,0,0,0.1-0.1,0.1h-0.1h-7c0,0,0,0-0.1,0c0,0,0,0-0.1,0
	c0,0,0,0,0-0.1c0,0,0,0,0-0.1c0.2-2,0.9-3.8,1.9-5.6s2.5-3.2,4.1-4.2c0,0,0,0,0.1,0C13.4,8.6,13.4,8.6,13.6,8.7
	C13.5,8.6,13.5,8.6,13.6,8.7C13.5,8.6,13.6,8.6,13.6,8.7z M13.5,30.8l4.2-5.6c0,0,0.1,0,0.1-0.1h0.1c0.8,0.4,1.6,0.6,2.5,0.6
	c0.9,0,1.7-0.2,2.5-0.6H23c0,0,0.1,0,0.1,0.1l4.2,5.6c0,0,0,0,0,0.1c0,0,0,0,0,0.1c0,0.1,0,0,0,0.1l0,0c-2,1.2-4.4,1.9-6.8,1.9
	s-4.8-0.7-6.8-1.9l0,0c0,0,0,0,0-0.1C13.5,30.9,13.5,30.9,13.5,30.8C13.5,30.9,13.5,30.8,13.5,30.8z"/>
</svg>
