<?xml version="1.0" encoding="utf-8"?>
<!-- Generator: Adobe Illustrator 27.0.0, SVG Export Plug-In . SVG Version: 6.00 Build 0)  -->
<svg version="1.1" id="Layer_1" xmlns="http://www.w3.org/2000/svg" xmlns:xlink="http://www.w3.org/1999/xlink" x="0px" y="0px"
	 viewBox="0 0 40 40" style="enable-background:new 0 0 40 40;" xml:space="preserve">
<style type="text/css">
	.st0{fill:#FFFFFF;}
	.st1{fill:#C9CACC;}
</style>
<path class="st0" d="M24.8,1.7l-5.2,5.2l13.6,13.6l5.2-5.2L24.8,1.7z M26.6,21.1c-1.2,2.7-5.1,11-8.5,14.4
	C15.2,38.4,2,24.3,4.5,21.8c3.3-3.3,11.7-7.1,14.5-8.3L26.6,21.1L26.6,21.1z M15.9,27.7c-0.4,0.1-0.9,0.1-1.3,0
	c-0.4-0.1-0.8-0.3-1.2-0.7l-2,2c0.7,0.7,1.5,1.1,2.4,1.4c0.9,0.2,1.8,0.2,2.7,0L15.9,27.7z M12.7,24.6c0.1-0.4,0.3-0.8,0.7-1.2
	c0.3-0.3,0.7-0.5,1.2-0.7l-0.7-2.6c-0.9,0.2-1.7,0.7-2.4,1.4c-0.7,0.7-1.1,1.5-1.4,2.4L12.7,24.6z M16,24.5
	c-0.2-0.2-0.4-0.3-0.6-0.3c-0.2,0-0.4,0-0.6,0.1c-0.2,0.1-0.4,0.2-0.5,0.4c-0.1,0.2-0.2,0.4-0.2,0.6s0.1,0.4,0.2,0.6
	s0.3,0.3,0.5,0.4s0.4,0.1,0.6,0.1c0.2,0,0.4-0.1,0.6-0.3c0.1-0.1,0.2-0.2,0.2-0.4c0.1-0.1,0.1-0.3,0.1-0.4s0-0.3-0.1-0.4
	C16.2,24.7,16.1,24.6,16,24.5L16,24.5z M19,21.5l-2,1.9c0.3,0.3,0.6,0.7,0.7,1.2c0.1,0.4,0.1,0.9,0,1.3l2.6,0.7
	c0.2-0.9,0.2-1.9,0-2.8C20.1,23,19.6,22.2,19,21.5L19,21.5z"/>
<path class="st1" d="M13.9,36.3c0.6,0.4,1.3,0.6,2,0.8c-1.8,1-4,1.3-6,1c-2.1-0.3-4-1.3-5.4-2.8C2.9,33.9,2,32,1.7,29.9
	s0.1-4.2,1.2-6c0.2,0.7,0.6,1.6,1.1,2.5c1.1,1.8,2.8,3.9,4.7,5.8C10.5,34,12.3,35.5,13.9,36.3L13.9,36.3z"/>
<polygon class="st1" points="20.3,12.7 27.2,19.7 30.8,20.2 19.9,9.3 "/>
</svg>
