<?xml version="1.0" encoding="utf-8"?>
<!-- Generator: Adobe Illustrator 27.0.0, SVG Export Plug-In . SVG Version: 6.00 Build 0)  -->
<svg version="1.1" id="Layer_1" xmlns="http://www.w3.org/2000/svg" xmlns:xlink="http://www.w3.org/1999/xlink" x="0px" y="0px"
	 viewBox="0 0 40 40" style="enable-background:new 0 0 40 40;" xml:space="preserve">
<style type="text/css">
	.st0{fill:#C9CACC;}
	.st1{fill:#FFFFFF;}
</style>
<path class="st0" d="M29.2,12.4l-13.3,9.7l1.1,0.6l12.4-9.1L29.2,12.4z M25.4,18.2l-2.8,2c0.3,0.2,0.7,0.4,1.1,0.4
	c1,0,1.8-0.8,1.8-1.8C25.5,18.7,25.4,18.4,25.4,18.2z M23.1,22v2.4h1.1V22c-0.2,0-0.4,0-0.5,0C23.5,22.1,23.3,22.1,23.1,22z
	 M21.9,25.8v6.1h3.6v-6.1H21.9z M20.5,30.1l-4.8,5.6h1.9l2.9-3.4V30.1z M26.9,30.1v2.2l2.9,3.4h1.9L26.9,30.1z"/>
<path class="st1" d="M38.3,1.7c-0.7,0.1-1.6,0.3-2.6,0.6c-1.3,0.5-2.7,1.2-4,2l2.1,2.9C35,6.2,36.1,5.1,37,4
	C37.6,3.1,38.1,2.3,38.3,1.7z"/>
<polygon class="st1" points="30.6,5.1 4.5,24.2 5.1,25.1 11.6,20.4 12.5,21.5 6,26.3 6.6,27.1 32.7,8 "/>
<polygon class="st1" points="5.4,18.8 1.7,20.4 3.7,23.1 8.8,19.3 "/>
<polygon class="st1" points="12.6,24.5 7.5,28.3 9.5,31 12.1,27.9 "/>
<rect x="3.4" y="25" transform="matrix(0.8064 -0.5913 0.5913 0.8064 -15.1039 7.5185)" class="st1" width="1.1" height="3.6"/>
<rect x="11.9" y="37.1" class="st1" width="7.3" height="1.2"/>
<rect x="28.1" y="37.1" class="st1" width="7.3" height="1.2"/>
</svg>
