<?xml version="1.0" encoding="utf-8"?>
<!-- Generator: Adobe Illustrator 27.0.0, SVG Export Plug-In . SVG Version: 6.00 Build 0)  -->
<svg version="1.1" id="Layer_1" xmlns="http://www.w3.org/2000/svg" xmlns:xlink="http://www.w3.org/1999/xlink" x="0px" y="0px"
	 viewBox="0 0 40 40" style="enable-background:new 0 0 40 40;" xml:space="preserve">
<style type="text/css">
	.st0{fill:#FFFFFF;}
	.st1{fill:#C9CACC;}
</style>
<path class="st0" d="M32.7,14.2h-4.5c-0.8,0-1.5-0.5-1.8-1.2s-0.1-1.6,0.4-2.2l0.2-0.2h-8.1c-1.1,0-2-0.9-2-2V5.1V5h-12
	C3.3,5,2,6.3,2,7.8v22.6l3.9-3.9c0.4-0.4,0.9-0.6,1.4-0.6h4.5c0.8,0,1.5,0.5,1.8,1.2s0.1,1.6-0.4,2.2L13,29.5h8.1c1.1,0,2,0.9,2,2
	V35h12c1.6,0,2.8-1.3,2.8-2.8V9.7L34,13.6C33.7,14,33.2,14.2,32.7,14.2z M5,14.1V8h6.1C11.1,11.3,8.3,14.1,5,14.1z M20,27.4
	c-2.9,0-5.2-3.2-5.2-7.4s2.3-7.4,5.2-7.4s5.2,3.2,5.2,7.4S22.9,27.4,20,27.4z M35,32h-6.1c0-3.3,2.7-6.1,6.1-6.1V32z"/>
<polygon class="st1" points="8.3,31.5 11.9,27.9 7.3,27.9 2.2,33.1 2,33.3 2.4,33.7 3.3,34.6 7.3,38.6 11.9,38.6 8.3,35 21.2,35 
	21.2,35 21.2,31.5 "/>
<polygon class="st1" points="37.7,6.6 36.4,5.3 32.7,1.5 28.1,1.5 31.6,5 31.7,5.1 18.8,5.1 18.8,8.6 31.7,8.6 28.1,12.2 32.7,12.2 
	37.9,7 38,6.9 "/>
</svg>
