<?xml version="1.0" encoding="utf-8"?>
<!-- Generator: Adobe Illustrator 27.0.0, SVG Export Plug-In . SVG Version: 6.00 Build 0)  -->
<svg version="1.1" id="Layer_1" xmlns="http://www.w3.org/2000/svg" xmlns:xlink="http://www.w3.org/1999/xlink" x="0px" y="0px"
	 viewBox="0 0 40 40" style="enable-background:new 0 0 40 40;" xml:space="preserve">
<style type="text/css">
	.st0{fill:none;stroke:#F8F8F8;stroke-width:3.3191;stroke-linecap:square;stroke-linejoin:round;}
	.st1{fill:#F8F8F8;}
	.st2{fill:none;stroke:#C9CACC;stroke-width:2.5;stroke-linecap:round;stroke-linejoin:round;}
	.st3{fill:#C9CACC;}
</style>
<g>
	<g>
		<path class="st0" d="M32.2,22.6v7.9c0,3.4-2.7,6.1-6,6.1s-6-2.7-6-6.1V10c0-3.6-2.7-6.6-6-6.6s-6,2.9-6,6.6v3.2"/>
		<g>
			<polygon class="st1" points="26.6,29.2 32.2,23.6 37.8,29.2 37.8,24.4 32.2,18.8 26.6,24.4 			"/>
		</g>
	</g>
</g>
<g>
	<path class="st2" d="M36.9,7.3c0,3.5-4.7,8-4.7,8s-4.7-4.5-4.7-8c0-1.2,0.5-2.3,1.4-3.2s2.1-1.3,3.3-1.3c1.3,0,2.4,0.4,3.3,1.3
		C36.4,5,36.9,6.1,36.9,7.3z"/>
	<path class="st3" d="M32.2,9.1c0.9,0,1.5-0.7,1.5-1.5S33.1,6,32.2,6s-1.6,0.7-1.6,1.5S31.3,9.1,32.2,9.1z"/>
</g>
<g>
	<rect x="6.5" y="23.5" class="st3" width="3.5" height="14.8"/>
	<polygon class="st3" points="9.9,22.5 6.5,22.5 8.2,16.8 	"/>
	<polygon class="st3" points="5.5,38.2 3.1,38.2 5.5,33.4 	"/>
	<polygon class="st3" points="10.9,38.2 13.3,38.2 10.9,33.4 	"/>
	<polygon class="st3" points="5.5,28.8 4.1,28.8 5.5,24.9 	"/>
	<polygon class="st3" points="10.9,28.8 12.3,28.8 10.9,24.9 	"/>
</g>
</svg>
