<?xml version="1.0" encoding="utf-8"?>
<!-- Generator: Adobe Illustrator 27.0.0, SVG Export Plug-In . SVG Version: 6.00 Build 0)  -->
<svg version="1.1" id="Layer_1" xmlns="http://www.w3.org/2000/svg" xmlns:xlink="http://www.w3.org/1999/xlink" x="0px" y="0px"
	 viewBox="0 0 40 40" style="enable-background:new 0 0 40 40;" xml:space="preserve">
<style type="text/css">
	.st0{fill:#FFFFFF;}
	.st1{fill:#C9CACC;}
	.st2{fill:#78A4C8;}
</style>
<path class="st0" d="M22,19.7l-3.1,2.8l2.7-0.6l-2.4,4.6l-5.4,2.6l-0.8-5l-3,4.6l-1.8-4l-0.5,9.8C6.9,34.2,6,33.9,5,33.9
	c-1.1,0-2.4,0.3-3.6,0.8v1.5c1.3-0.5,2.7-0.9,3.6-0.9c1.1,0,2.2,0.5,3.4,1.2c1.2,0.6,2.5,1.3,4.1,1.3s2.9-0.7,4.1-1.3
	s2.3-1.2,3.4-1.2s2.2,0.5,3.4,1.2c1.2,0.6,2.5,1.3,4.1,1.3s2.9-0.7,4.1-1.3c1.2-0.6,2.3-1.2,3.4-1.2c0.9,0,2.3,0.4,3.6,0.9v-1.5
	c-1.2-0.4-2.5-0.8-3.6-0.8c-1.5,0-2.9,0.7-4.1,1.3c-1.2,0.6-2.3,1.2-3.4,1.2s-2.2-0.5-3.4-1.2c-1.1-0.6-2.4-1.2-3.8-1.3l5.5-3.3
	l-4.9,0.8l2.4-2.5c0.6,0.2,1.5-0.8,1.1-1.3c-0.1-0.1-0.2-0.1-0.3-0.1c-0.3,0-0.6,0.2-0.8,0.4c-0.2,0.2-0.3,0.5-0.3,0.7l-2.8,0.9
	l0.2-3.3l2.7-3.2l0.6,3.2l1.7-4L22,19.7z"/>
<polygon class="st1" points="36.7,2.2 31.8,6.5 34.4,8.3 "/>
<polygon class="st1" points="30.8,7.6 23.1,18.8 26.1,20.8 33.8,9.6 32.3,8.6 "/>
<polygon class="st1" points="23.9,15.1 20.2,16.4 18,19.6 21.7,18.4 "/>
<polygon class="st1" points="29.2,18.8 27.8,20.8 27,22 27.1,25.9 29.3,22.7 "/>
<path class="st1" d="M5.9,21C5.8,21,5.8,21,5.9,21c-0.4,0.1-0.4,0.8-0.3,1.1c0.2,0.3,0.8,0.7,1.1,0.4C7,22.1,6.4,21,5.9,21z"/>
<path class="st1" d="M10.9,21.4h-0.1c-0.7,0.3-0.6,1.7,0.1,1.9c0.5,0.1,0.9-0.6,0.9-1.1C11.8,21.9,11.3,21.4,10.9,21.4L10.9,21.4z"
	/>
<path class="st0" d="M5.8,25.7c-0.2,0-0.3,0-0.3,0.1c-0.2,0.2,0.3,0.8,0.6,0.9c0.3,0.1,1,0.1,0.9-0.3C6.9,26.1,6.2,25.7,5.8,25.7z"
	/>
<path class="st1" d="M28.5,30.1c-0.6,0-1.4,0.5-1.3,1c0,0.4,0.8,0.3,1.1,0.2c0.4-0.2,0.9-0.7,0.6-1C28.8,30.1,28.6,30.1,28.5,30.1z"
	/>
<path class="st2" d="M26.3,31.9c-0.2,0-0.4,0.1-0.5,0.2c-0.2,0.3,0.3,0.8,0.6,0.9c0.3,0.1,1,0.2,1-0.2
	C27.4,32.3,26.8,31.9,26.3,31.9z"/>
<path class="st1" d="M26.3,31.9c-0.2,0-0.4,0.1-0.5,0.2c-0.2,0.3,0.3,0.8,0.6,0.9c0.3,0.1,1,0.2,1-0.2
	C27.4,32.3,26.8,31.9,26.3,31.9z"/>
</svg>
