<?xml version="1.0" encoding="utf-8"?>
<!-- Generator: Adobe Illustrator 27.0.0, SVG Export Plug-In . SVG Version: 6.00 Build 0)  -->
<svg version="1.1" id="Layer_1" xmlns="http://www.w3.org/2000/svg" xmlns:xlink="http://www.w3.org/1999/xlink" x="0px" y="0px"
	 viewBox="0 0 40 40" style="enable-background:new 0 0 40 40;" xml:space="preserve">
<style type="text/css">
	.st0{fill:#00558C;}
	.st1{fill:#C9CACC;}
	.st2{fill:#FFFFFF;}
</style>
<polygon class="st0" points="18.6,25.3 27.6,16.9 32.8,11.4 35.1,10.9 36.8,11.8 37,14.3 34.7,17.2 24.3,27.6 20.5,29 19.1,28.6 "/>
<path class="st0" d="M4.7,34.3c0.6,0,22.5-0.5,22.5-0.5v-2.5l-7.4-1.5l-2.4-2.1l-4.5-5.1l-4,0.5c0,0-3.5,3.9-3.5,4.3
	C5.3,27.8,4.7,34.3,4.7,34.3z"/>
<polygon class="st1" points="26.1,18.9 4.4,22.6 4.4,6.3 29.1,6.3 "/>
<path class="st2" d="M38.3,15.4l-0.5-0.5c0.3-0.6,0.4-1.4,0.3-2.1c-0.1-0.7-0.4-1.4-0.9-1.9c-0.3-0.3-0.7-0.6-1.2-0.8
	C35.6,10,35.1,10,34.6,10c-0.4,0-0.9,0.1-1.3,0.3V2.2H2.2v35.6h31.1v-18l3.4-3.4l0.3,0.3l0.1,0.1c0,0.1,0,0.1,0,0.2s0,0.1,0,0.2
	L37,17.3l-2.6,2.6c-0.2,0.2-0.3,0.4-0.3,0.6s0.1,0.5,0.3,0.6c0.2,0.2,0.4,0.3,0.6,0.3c0.2,0,0.5-0.1,0.6-0.3l2.6-2.6
	c0.4-0.4,0.6-1,0.6-1.6C39,16.4,38.7,15.8,38.3,15.4z M8.9,9.1h17.8v1.8H8.9V9.1z M8.9,13.6h17.8v1.8H8.9V13.6z M8.9,18h11.7v1.8
	H8.9V18z M25.3,33.2h-8.7c-1,0-1.9-0.1-2.4-0.9c-0.5-0.8,0-1.8,0.4-2.5c0.1-0.1-0.1-0.3-0.2-0.1c-0.5,0.5-1.3,1.4-1.9,2.1
	c-0.7,0.8-0.9,1.1-1.1,1.2c-0.1,0.2-0.3,0.3-0.6,0.3c-0.2,0-0.5,0-0.7-0.1C10,33.1,9.8,33,9.7,32.8s-0.1-0.4,0-0.6
	c0-0.3,0.8-3.4,1.6-6.1c-1,1.7-4,6.8-4.1,7c-0.1,0.2-0.3,0.3-0.5,0.4c-0.2,0.1-0.4,0-0.6-0.1s-0.3-0.3-0.4-0.5s0-0.4,0.1-0.6
	c0-0.1,3.8-6.4,4.3-7.4c0.2-0.4,0.4-0.7,0.8-0.8c0.4-0.2,0.8-0.2,1.2-0.1c0.3,0.1,0.6,0.4,0.8,0.7c0.2,0.3,0.2,0.7,0.1,1.1
	c-0.4,1.5-0.8,3.1-1.1,4.4c0.5-0.6,1-1.2,1.4-1.6c0.3-0.4,0.7-0.6,1.1-0.7c0.4-0.1,0.9-0.1,1.3,0.1c0.3,0.1,0.5,0.3,0.6,0.6
	c0.1,0.3,0.2,0.6,0.1,0.9c-0.1,0.4-0.3,0.7-0.4,1c-0.3,0.6-0.2,1.2,0.7,1.2h8.7c0.2,0,0.4,0.1,0.6,0.2c0.1,0.1,0.2,0.3,0.2,0.5
	s-0.1,0.4-0.2,0.5C25.7,33.1,25.5,33.2,25.3,33.2L25.3,33.2z M23,27.6l-2.9,0.8H20c0,0-0.1,0-0.1-0.1l-0.1-0.1v-0.1l0.7-2.9l7.3-7.3
	l2.4,2.4L23,27.6z M35.8,14.9L31.6,19l-2.4-2.4l4.2-4.2c0.4-0.4,0.9-0.6,1.4-0.7h0.1c0.2,0,0.4,0,0.6,0.1c0.2,0.1,0.4,0.2,0.5,0.3
	c0.3,0.4,0.5,0.9,0.4,1.4C36.4,14.1,36.1,14.5,35.8,14.9z"/>
</svg>
