<?xml version="1.0" encoding="utf-8"?>
<!-- Generator: Adobe Illustrator 27.0.0, SVG Export Plug-In . SVG Version: 6.00 Build 0)  -->
<svg version="1.1" id="Layer_1" xmlns="http://www.w3.org/2000/svg" xmlns:xlink="http://www.w3.org/1999/xlink" x="0px" y="0px"
	 viewBox="0 0 40 40" style="enable-background:new 0 0 40 40;" xml:space="preserve">
<style type="text/css">
	.st0{fill:#C9CACC;}
	.st1{fill:#FFFFFF;}
	.st2{fill:#F8F8F8;}
</style>
<path class="st0" d="M23.9,8.8c-1-0.8-2.2-1.3-3.6-1.3l0,0c-1.3,0-2.5,0.5-3.4,1.2l3.6,2.1L23.9,8.8z"/>
<path class="st1" d="M29.7,18.5V7.6l-9.4-5.5l0,0l-9.4,5.5v10.9l9.4,5.4L29.7,18.5z M28.3,9.7L28.3,9.7L28.3,9.7v8l-7.2,4.1v-8
	L28.3,9.7L28.3,9.7z M20.3,3.8L20.3,3.8L20.3,3.8l7.6,4.4l-7.4,4.3l-7.6-4.4L20.3,3.8z M19.6,21.9l-7.3-4.2V9.4l7.3,4.2V21.9z"/>
<path class="st0" d="M18.3,18.1v-3.7l-3.4-2c0,0.2,0,0.4,0,0.6C14.9,15.3,16.3,17.3,18.3,18.1z"/>
<path class="st2" d="M28.3,9.7L28.3,9.7L28.3,9.7z"/>
<path class="st0" d="M25.8,13c0-0.1,0-0.3,0-0.4l0,0l-3.3,1.9v3.6C24.5,17.2,25.8,15.3,25.8,13z"/>
<path class="st0" d="M34.4,27.3c0-0.1,0-0.3,0-0.4L31,28.8v3.6C33,31.6,34.4,29.6,34.4,27.3z"/>
<path class="st1" d="M31.5,19.5l-0.1,0.1l5.1,2.9L29,26.8l-5.1-2.9l-1.5,0.8l5.7,3.3v8.2L20.8,32v-6.3L20.3,26l-0.9-0.5V32l-7.2,4.1
	v-8l5.9-3.4l-1.5-0.8l-5.1,2.9L4,22.4l5.1-3v-1.7l-7.2,4.1v10.9l9.4,5.5l8.7-5l8.7,5l9.4-5.4V21.9L31.5,18V19.5z M10.8,36.2L3.4,32
	v-8.2l0,0l7.3,4.2L10.8,36.2L10.8,36.2z M36.8,24v8l-7.2,4.1v-8L36.8,24L36.8,24z"/>
<path class="st0" d="M13.6,32.4c2-0.8,3.4-2.8,3.4-5.1c0-0.1,0-0.3,0-0.4l-3.3,1.9L13.6,32.4L13.6,32.4z"/>
<path class="st0" d="M26.8,32.4v-3.7l-3.4-2c0,0.2,0,0.4,0,0.6C23.4,29.6,24.8,31.6,26.8,32.4z"/>
<path class="st0" d="M9.4,32.4v-3.7l-3.4-2l0,0c0,0.2,0,0.4,0,0.6C6,29.6,7.4,31.6,9.4,32.4z"/>
<path class="st0" d="M29,25.1l3.4-2c-1-0.8-2.2-1.3-3.6-1.3c-1.3,0-2.5,0.5-3.4,1.2L29,25.1z"/>
<path class="st0" d="M11.6,25.1l3.4-2c-1-0.8-2.2-1.3-3.6-1.3c-1.3,0-2.5,0.5-3.4,1.2L11.6,25.1z"/>
</svg>
