<?xml version="1.0" encoding="utf-8"?>
<!-- Generator: Adobe Illustrator 27.0.0, SVG Export Plug-In . SVG Version: 6.00 Build 0)  -->
<svg version="1.1" id="Layer_1" xmlns="http://www.w3.org/2000/svg" xmlns:xlink="http://www.w3.org/1999/xlink" x="0px" y="0px"
	 viewBox="0 0 40 40" style="enable-background:new 0 0 40 40;" xml:space="preserve">
<style type="text/css">
	.st0{fill:#FFFFFF;}
	.st1{fill:#C9CACC;}
</style>
<path class="st0" d="M38.2,37.6H1.8v-1.4c0-1.1,0.9-2,2-2h32.4c1.1,0,2,0.9,2,2V37.6z"/>
<path class="st1" d="M35.4,33.1H4.6v-2.4c0-0.6,0.4-1,1-1h28.8c0.6,0,1,0.4,1,1C35.4,30.7,35.4,33.1,35.4,33.1z"/>
<g>
	<rect x="6.4" y="11.7" class="st0" width="2.9" height="16.8"/>
	<rect x="12.5" y="11.7" class="st0" width="2.9" height="16.8"/>
	<rect x="18.5" y="11.7" class="st0" width="2.9" height="16.8"/>
	<rect x="24.6" y="11.7" class="st0" width="2.9" height="16.8"/>
	<rect x="30.6" y="11.7" class="st0" width="2.9" height="16.8"/>
</g>
<g>
	<rect x="4.6" y="7.5" class="st0" width="30.8" height="3.4"/>
	<polygon class="st0" points="7.9,7.5 20,1.4 32.1,7.5 	"/>
</g>
</svg>
