<?xml version="1.0" encoding="UTF-8"?>
<svg xmlns="http://www.w3.org/2000/svg" xmlns:xlink="http://www.w3.org/1999/xlink" viewBox="0 0 144 614.57">
  <defs>
    <style>
      .cls-1 {
        fill: #efe1a8;
        stroke: url(#linear-gradient-7);
      }

      .cls-1, .cls-2, .cls-3, .cls-4, .cls-5, .cls-6 {
        stroke-width: .75px;
      }

      .cls-1, .cls-3, .cls-5, .cls-6 {
        stroke-miterlimit: 10;
      }

      .cls-7 {
        fill: none;
        stroke: #fff;
      }

      .cls-7, .cls-2, .cls-4 {
        stroke-linejoin: round;
      }

      .cls-2 {
        fill: url(#linear-gradient);
        stroke: url(#linear-gradient-2);
      }

      .cls-2, .cls-4 {
        stroke-linecap: round;
      }

      .cls-3 {
        fill: #a39761;
        stroke: url(#linear-gradient-9);
      }

      .cls-4 {
        fill: url(#linear-gradient-3);
        stroke: url(#linear-gradient-4);
      }

      .cls-5 {
        fill: #c4b872;
        stroke: url(#linear-gradient-10);
      }

      .cls-8 {
        fill: url(#linear-gradient-8);
        mix-blend-mode: multiply;
      }

      .cls-9 {
        fill: url(#linear-gradient-6);
      }

      .cls-10 {
        fill: url(#linear-gradient-5);
      }

      .cls-11 {
        isolation: isolate;
      }

      .cls-6 {
        fill: #7a7a7a;
        stroke: #7a7a7a;
      }
    </style>
    <linearGradient id="linear-gradient" x1="56.53" y1="397.93" x2="91.31" y2="397.93" gradientUnits="userSpaceOnUse">
      <stop offset="0" stop-color="#e2d286"/>
      <stop offset=".03" stop-color="#e6d690"/>
      <stop offset=".09" stop-color="#ebdc9d"/>
      <stop offset=".17" stop-color="#eedfa5"/>
      <stop offset=".32" stop-color="#efe1a8"/>
      <stop offset=".55" stop-color="#d5c888"/>
      <stop offset=".7" stop-color="#c4b872"/>
      <stop offset=".78" stop-color="#b3a769"/>
      <stop offset=".89" stop-color="#a39761"/>
      <stop offset=".93" stop-color="#a69a62"/>
      <stop offset=".96" stop-color="#b0a468"/>
      <stop offset="1" stop-color="#c2b671"/>
      <stop offset="1" stop-color="#c4b872"/>
    </linearGradient>
    <linearGradient id="linear-gradient-2" x1="56.16" y1="397.93" x2="91.69" y2="397.93" gradientUnits="userSpaceOnUse">
      <stop offset=".34" stop-color="#efe1a8"/>
      <stop offset=".58" stop-color="#d5c888"/>
      <stop offset=".73" stop-color="#c4b872"/>
      <stop offset=".91" stop-color="#aea267"/>
      <stop offset="1" stop-color="#a39761"/>
    </linearGradient>
    <linearGradient id="linear-gradient-3" x1="56.53" y1="177.02" x2="91.31" y2="177.02" gradientUnits="userSpaceOnUse">
      <stop offset=".44" stop-color="#efe1a8"/>
      <stop offset="1" stop-color="#a39761"/>
    </linearGradient>
    <linearGradient id="linear-gradient-4" x1="62.36" y1="176.49" x2="96.83" y2="182.57" gradientUnits="userSpaceOnUse">
      <stop offset=".34" stop-color="#efe1a8"/>
      <stop offset=".58" stop-color="#d5c888"/>
      <stop offset=".73" stop-color="#c4b872"/>
      <stop offset=".91" stop-color="#aea267"/>
      <stop offset="1" stop-color="#a39761"/>
    </linearGradient>
    <linearGradient id="linear-gradient-5" x1="86.23" y1="558.7" x2="92.01" y2="551.71" gradientUnits="userSpaceOnUse">
      <stop offset=".27" stop-color="#80764c"/>
      <stop offset=".49" stop-color="#8f8455" stop-opacity=".56"/>
      <stop offset=".7" stop-color="#9d915d" stop-opacity=".16"/>
      <stop offset=".8" stop-color="#a39761" stop-opacity="0"/>
    </linearGradient>
    <linearGradient id="linear-gradient-6" x1="-543.99" y1="558.73" x2="-538.17" y2="551.69" gradientTransform="translate(599.46 1109.92) scale(1 -1)" xlink:href="#linear-gradient-5"/>
    <linearGradient id="linear-gradient-7" x1="47.63" y1="568.52" x2="66.64" y2="575.44" xlink:href="#linear-gradient-2"/>
    <linearGradient id="linear-gradient-8" x1="90.17" y1="563.77" x2="68.7" y2="572.81" gradientUnits="userSpaceOnUse">
      <stop offset=".37" stop-color="#ccc4aa" stop-opacity="0"/>
      <stop offset=".51" stop-color="#b6af97" stop-opacity=".37"/>
      <stop offset=".69" stop-color="#9d9580" stop-opacity=".82"/>
      <stop offset=".77" stop-color="#938c77"/>
    </linearGradient>
    <linearGradient id="linear-gradient-9" x1="102.53" y1="570.47" x2="86.97" y2="570.47" xlink:href="#linear-gradient-2"/>
    <linearGradient id="linear-gradient-10" x1="71.6" y1="570.92" x2="76.25" y2="570.92" xlink:href="#linear-gradient-2"/>
  </defs>
  <g class="cls-11">
    <g id="Layer_5" data-name="Layer 5">
      <path class="cls-2" d="M91.31,211.7H56.53v19.67h0v348.77c0,5.35,34.78,5.35,34.78,0V231.38h0v-19.67Z"/>
      <path class="cls-4" d="M71.53,144.2l-15,67.5h34.78l-15-67.5c-.62-2.49-4.16-2.49-4.79,0Z"/>
      <rect class="cls-10" x="86.97" y="548.93" width="4.71" height="12.06"/>
      <rect class="cls-9" x="56.17" y="548.93" width="4.84" height="12.06" transform="translate(117.17 1109.92) rotate(-180)"/>
      <g>
        <line class="cls-7" x1="65.19" y1="224.19" x2="82.66" y2="224.19"/>
        <line class="cls-7" x1="65.19" y1="220.54" x2="82.66" y2="220.54"/>
      </g>
      <g>
        <line class="cls-7" x1="65.19" y1="254.22" x2="82.66" y2="254.22"/>
        <line class="cls-7" x1="65.19" y1="250.57" x2="82.66" y2="250.57"/>
      </g>
      <g>
        <line class="cls-7" x1="65.19" y1="274.23" x2="82.66" y2="274.23"/>
        <line class="cls-7" x1="65.19" y1="270.58" x2="82.66" y2="270.58"/>
      </g>
      <g>
        <line class="cls-7" x1="65.19" y1="538.21" x2="82.66" y2="538.21"/>
        <line class="cls-7" x1="65.19" y1="534.56" x2="82.66" y2="534.56"/>
      </g>
      <g>
        <line class="cls-7" x1="65.19" y1="518.19" x2="82.66" y2="518.19"/>
        <line class="cls-7" x1="65.19" y1="514.54" x2="82.66" y2="514.54"/>
      </g>
      <polygon class="cls-1" points="60.66 551.56 45.85 574.55 45.85 590.47 60.66 590.47 60.66 551.56"/>
      <path class="cls-8" d="M73.62,552.37v32.12c.1,0,.21,0,.31,0,8.83,0,17.74-1.35,17.74-4.34v-27.79h-18.05Z"/>
      <polygon class="cls-3" points="87.34 551.37 102.16 574.36 101.85 590.47 87.34 590.47 87.34 551.37"/>
      <rect class="cls-5" x="71.97" y="551.37" width="3.9" height="39.1"/>
      <path class="cls-6" d="M77.55,149.75h-7.25l1.23-5.55c.62-2.5,4.17-2.5,4.79,0l1.23,5.55Z"/>
    </g>
  </g>
</svg>