<?xml version="1.0" encoding="UTF-8"?>
<svg xmlns="http://www.w3.org/2000/svg" xmlns:xlink="http://www.w3.org/1999/xlink" viewBox="0 0 144 614.57">
  <defs>
    <style>
      .cls-1 {
        stroke: url(#linear-gradient);
      }

      .cls-1, .cls-2, .cls-3, .cls-4, .cls-5, .cls-6, .cls-7, .cls-8, .cls-9, .cls-10, .cls-11, .cls-12, .cls-13 {
        stroke-width: .75px;
      }

      .cls-1, .cls-2, .cls-3, .cls-4, .cls-5, .cls-6, .cls-7, .cls-8, .cls-9, .cls-10, .cls-11, .cls-13 {
        stroke-linecap: round;
      }

      .cls-1, .cls-2, .cls-3, .cls-4, .cls-5, .cls-13 {
        stroke-linejoin: round;
      }

      .cls-1, .cls-8, .cls-9 {
        fill: #ccc4aa;
      }

      .cls-2 {
        fill: url(#linear-gradient-9);
        stroke: url(#linear-gradient-10);
      }

      .cls-3 {
        fill: url(#linear-gradient-3);
        stroke: url(#linear-gradient-4);
      }

      .cls-4 {
        fill: url(#linear-gradient-7);
        stroke: url(#linear-gradient-8);
      }

      .cls-5 {
        fill: url(#linear-gradient-5);
        stroke: url(#linear-gradient-6);
      }

      .cls-6 {
        fill: url(#linear-gradient-20);
        stroke: url(#linear-gradient-21);
      }

      .cls-6, .cls-7, .cls-8, .cls-9, .cls-10, .cls-11, .cls-12 {
        stroke-miterlimit: 10;
      }

      .cls-7 {
        fill: url(#linear-gradient-18);
        stroke: url(#linear-gradient-19);
      }

      .cls-8 {
        stroke: url(#linear-gradient-16);
      }

      .cls-9 {
        stroke: url(#linear-gradient-15);
      }

      .cls-14 {
        fill: url(#linear-gradient-12);
      }

      .cls-15 {
        fill: url(#linear-gradient-11);
      }

      .cls-16 {
        isolation: isolate;
      }

      .cls-10 {
        stroke: url(#linear-gradient-14);
      }

      .cls-10, .cls-11, .cls-13 {
        fill: #938c77;
      }

      .cls-11 {
        stroke: url(#linear-gradient-22);
      }

      .cls-17 {
        fill: url(#linear-gradient-17);
      }

      .cls-17, .cls-18 {
        mix-blend-mode: multiply;
      }

      .cls-18 {
        fill: url(#linear-gradient-13);
      }

      .cls-12 {
        fill: #606057;
        stroke: #606057;
      }

      .cls-13 {
        stroke: url(#linear-gradient-2);
      }
    </style>
    <linearGradient id="linear-gradient" x1="50.69" y1="358.43" x2="62.58" y2="360.53" gradientUnits="userSpaceOnUse">
      <stop offset=".1" stop-color="#ccc4aa"/>
      <stop offset=".16" stop-color="#d0c8ad"/>
      <stop offset=".36" stop-color="#dfd6b9"/>
      <stop offset=".61" stop-color="#e8dec0"/>
      <stop offset="1" stop-color="#ebe1c3"/>
    </linearGradient>
    <linearGradient id="linear-gradient-2" x1="93.51" y1="357.04" x2="88.08" y2="366.45" gradientUnits="userSpaceOnUse">
      <stop offset="0" stop-color="#ebe1c3"/>
      <stop offset=".07" stop-color="#d6cdb1"/>
      <stop offset=".17" stop-color="#beb59c"/>
      <stop offset=".28" stop-color="#aaa28b"/>
      <stop offset=".42" stop-color="#9d957f"/>
      <stop offset=".58" stop-color="#958e79"/>
      <stop offset=".9" stop-color="#938c77"/>
    </linearGradient>
    <linearGradient id="linear-gradient-3" x1="61.38" y1="480.13" x2="86.63" y2="480.13" gradientUnits="userSpaceOnUse">
      <stop offset="0" stop-color="#ccc4aa"/>
      <stop offset=".05" stop-color="#d9d4c1"/>
      <stop offset=".13" stop-color="#eae6dc"/>
      <stop offset=".21" stop-color="#f5f4ef"/>
      <stop offset=".29" stop-color="#fcfcfb"/>
      <stop offset=".37" stop-color="#fff"/>
      <stop offset=".54" stop-color="#e0ddd5"/>
      <stop offset=".75" stop-color="#c2bcab"/>
      <stop offset=".9" stop-color="#afa791"/>
      <stop offset="1" stop-color="#a8a088"/>
    </linearGradient>
    <linearGradient id="linear-gradient-4" x1="61" y1="480.13" x2="87.01" y2="480.13" gradientUnits="userSpaceOnUse">
      <stop offset=".17" stop-color="#fff"/>
      <stop offset=".38" stop-color="#dcdad3"/>
      <stop offset=".73" stop-color="#a7a291"/>
      <stop offset=".9" stop-color="#938c77"/>
    </linearGradient>
    <linearGradient id="linear-gradient-5" x1="61.38" y1="359.34" x2="86.63" y2="359.34" gradientUnits="userSpaceOnUse">
      <stop offset="0" stop-color="#ccc4aa"/>
      <stop offset=".37" stop-color="#fff"/>
      <stop offset=".5" stop-color="#ebeae4"/>
      <stop offset=".84" stop-color="#bbb4a2"/>
      <stop offset="1" stop-color="#a8a088"/>
    </linearGradient>
    <linearGradient id="linear-gradient-6" x1="61" y1="359.34" x2="87.01" y2="359.34" gradientUnits="userSpaceOnUse">
      <stop offset=".3" stop-color="#fff"/>
      <stop offset=".31" stop-color="#fefdfd"/>
      <stop offset=".45" stop-color="#d8d5cd"/>
      <stop offset=".58" stop-color="#bab5a8"/>
      <stop offset=".7" stop-color="#a49e8d"/>
      <stop offset=".81" stop-color="#97907c"/>
      <stop offset=".9" stop-color="#938c77"/>
    </linearGradient>
    <linearGradient id="linear-gradient-7" y1="341.06" y2="341.06" xlink:href="#linear-gradient-5"/>
    <linearGradient id="linear-gradient-8" x1="61" y1="341.06" x2="87.01" y2="341.06" gradientUnits="userSpaceOnUse">
      <stop offset="0" stop-color="#fff"/>
      <stop offset=".42" stop-color="#ccc4aa"/>
      <stop offset=".46" stop-color="#c4bca2"/>
      <stop offset=".63" stop-color="#a9a18a"/>
      <stop offset=".78" stop-color="#98917c"/>
      <stop offset=".9" stop-color="#938c77"/>
    </linearGradient>
    <linearGradient id="linear-gradient-9" x1="63.55" y1="310.74" x2="84.45" y2="310.74" gradientUnits="userSpaceOnUse">
      <stop offset="0" stop-color="#ccc4aa"/>
      <stop offset=".37" stop-color="#fff"/>
      <stop offset=".5" stop-color="#ebeae4"/>
      <stop offset=".84" stop-color="#bbb4a2"/>
      <stop offset="1" stop-color="#a8a088"/>
    </linearGradient>
    <linearGradient id="linear-gradient-10" x1="65.96" y1="309.89" x2="88.15" y2="313.81" gradientUnits="userSpaceOnUse">
      <stop offset="0" stop-color="#fff"/>
      <stop offset=".42" stop-color="#ccc4aa"/>
      <stop offset=".46" stop-color="#c4bca2"/>
      <stop offset=".63" stop-color="#a9a18a"/>
      <stop offset=".78" stop-color="#98917c"/>
      <stop offset=".9" stop-color="#938c77"/>
    </linearGradient>
    <linearGradient id="linear-gradient-11" x1="82.28" y1="564.42" x2="87.73" y2="557.83" gradientUnits="userSpaceOnUse">
      <stop offset=".47" stop-color="#938c77"/>
      <stop offset=".54" stop-color="#958e79" stop-opacity=".96"/>
      <stop offset=".64" stop-color="#9c947f" stop-opacity=".84"/>
      <stop offset=".74" stop-color="#a79f88" stop-opacity=".65"/>
      <stop offset=".86" stop-color="#b6ae96" stop-opacity=".38"/>
      <stop offset=".99" stop-color="#c9c1a8" stop-opacity=".04"/>
      <stop offset="1" stop-color="#ccc4aa" stop-opacity="0"/>
    </linearGradient>
    <linearGradient id="linear-gradient-12" x1="1093.73" y1="564.44" x2="1099.2" y2="557.81" gradientTransform="translate(-1033.79 1121.78) scale(1 -1)" gradientUnits="userSpaceOnUse">
      <stop offset=".49" stop-color="#938c77"/>
      <stop offset=".56" stop-color="#958e79" stop-opacity=".96"/>
      <stop offset=".65" stop-color="#9c947f" stop-opacity=".84"/>
      <stop offset=".75" stop-color="#a79f88" stop-opacity=".65"/>
      <stop offset=".87" stop-color="#b6ae96" stop-opacity=".38"/>
      <stop offset=".99" stop-color="#c9c1a8" stop-opacity=".04"/>
      <stop offset="1" stop-color="#ccc4aa" stop-opacity="0"/>
    </linearGradient>
    <linearGradient id="linear-gradient-13" x1="61.02" y1="435.65" x2="86.99" y2="435.65" gradientUnits="userSpaceOnUse">
      <stop offset="0" stop-color="#ccc4aa"/>
      <stop offset=".3" stop-color="#ebe1c3"/>
      <stop offset=".57" stop-color="#c2b99e"/>
      <stop offset=".77" stop-color="#a8a088"/>
    </linearGradient>
    <linearGradient id="linear-gradient-14" x1="81.63" y1="552.07" x2="93.71" y2="545.1" gradientUnits="userSpaceOnUse">
      <stop offset=".1" stop-color="#938c77"/>
      <stop offset=".31" stop-color="#958e79"/>
      <stop offset=".47" stop-color="#9f9881"/>
      <stop offset=".6" stop-color="#afa78f"/>
      <stop offset=".73" stop-color="#c6bda3"/>
      <stop offset=".85" stop-color="#e3d9bc"/>
      <stop offset=".88" stop-color="#ebe1c3"/>
    </linearGradient>
    <linearGradient id="linear-gradient-15" x1="439.68" y1="549.81" x2="452.3" y2="549.81" gradientTransform="translate(504.34) rotate(-180) scale(1 -1)" gradientUnits="userSpaceOnUse">
      <stop offset="0" stop-color="#938c77"/>
      <stop offset=".06" stop-color="#9e9781"/>
      <stop offset=".2" stop-color="#b2ab93"/>
      <stop offset=".36" stop-color="#c1b9a0"/>
      <stop offset=".55" stop-color="#c9c1a7"/>
      <stop offset=".88" stop-color="#ccc4aa"/>
    </linearGradient>
    <linearGradient id="linear-gradient-16" x1="51.47" y1="573.48" x2="66.85" y2="576.2" gradientUnits="userSpaceOnUse">
      <stop offset=".12" stop-color="#ebe1c3"/>
      <stop offset=".15" stop-color="#e3d9bc"/>
      <stop offset=".27" stop-color="#c6bda3"/>
      <stop offset=".4" stop-color="#afa78f"/>
      <stop offset=".53" stop-color="#9f9881"/>
      <stop offset=".69" stop-color="#958e79"/>
      <stop offset=".9" stop-color="#938c77"/>
    </linearGradient>
    <linearGradient id="linear-gradient-17" x1="86.74" y1="571.36" x2="68.56" y2="579.01" gradientUnits="userSpaceOnUse">
      <stop offset=".37" stop-color="#ccc4aa" stop-opacity="0"/>
      <stop offset=".51" stop-color="#b6af97" stop-opacity=".37"/>
      <stop offset=".69" stop-color="#9d9580" stop-opacity=".82"/>
      <stop offset=".77" stop-color="#938c77"/>
    </linearGradient>
    <linearGradient id="linear-gradient-18" x1="72.59" y1="575.74" x2="75.42" y2="575.74" gradientUnits="userSpaceOnUse">
      <stop offset="0" stop-color="#938c77"/>
      <stop offset=".05" stop-color="#97907b"/>
      <stop offset=".69" stop-color="#d3caae"/>
      <stop offset="1" stop-color="#ebe1c3"/>
    </linearGradient>
    <linearGradient id="linear-gradient-19" x1="72.21" y1="575.74" x2="75.79" y2="575.74" gradientUnits="userSpaceOnUse">
      <stop offset="0" stop-color="#ccc4aa"/>
      <stop offset=".42" stop-color="#ebe1c3"/>
      <stop offset=".42" stop-color="#e9dfc1"/>
      <stop offset=".56" stop-color="#c4bba1"/>
      <stop offset=".69" stop-color="#a9a18a"/>
      <stop offset=".81" stop-color="#98917b"/>
      <stop offset=".9" stop-color="#938c77"/>
    </linearGradient>
    <linearGradient id="linear-gradient-20" x1="73.24" y1="359.34" x2="74.77" y2="359.34" xlink:href="#linear-gradient-18"/>
    <linearGradient id="linear-gradient-21" x1="72.87" y1="359.34" x2="75.14" y2="359.34" xlink:href="#linear-gradient-19"/>
    <linearGradient id="linear-gradient-22" x1="100.4" y1="583.13" x2="76.96" y2="569.59" xlink:href="#linear-gradient-16"/>
  </defs>
  <g class="cls-16">
    <g id="Layer_1_copy" data-name="Layer 1 copy">
      <polygon class="cls-1" points="50.27 365.18 61.38 365.18 61.38 353.5 50.27 362.94 50.27 365.18"/>
      <polygon class="cls-13" points="97.74 365.18 86.63 365.18 86.63 353.5 97.74 362.94 97.74 365.18"/>
      <path class="cls-3" d="M61.38,369.17v15.31h0v202.6c0,5.35,25.26,5.35,25.26,0v-202.6h0v-15.31h-25.26Z"/>
      <rect class="cls-5" x="61.38" y="349.5" width="25.26" height="19.67"/>
      <polygon class="cls-4" points="86.63 349.5 61.38 349.5 63.55 332.63 84.45 332.63 86.63 349.5"/>
      <polygon class="cls-2" points="70.05 288.85 63.55 332.63 84.45 332.63 77.97 288.85 70.05 288.85"/>
      <rect class="cls-15" x="83.4" y="554.86" width="3.59" height="12.06"/>
      <rect class="cls-14" x="61.02" y="554.86" width="3.69" height="12.06" transform="translate(125.72 1121.78) rotate(-180)"/>
      <path class="cls-12" d="M72.21,281.16l-2.16,7.69h7.92l-2.16-7.69c-.36-1.29-3.24-1.29-3.6,0Z"/>
    </g>
    <g id="Layer_5" data-name="Layer 5">
      <path class="cls-18" d="M86.99,349.48s0-.01,0-.02l-2.18-16.87s0,0,0,0c0,0,0,0,0,0l-6.49-43.77s0,0,0-.01c0,0,0-.02,0-.02l-2.16-7.69c-.24-.84-1.25-1.21-2.15-1.21s-1.91,.38-2.15,1.21l-2.16,7.69s0,.02,0,.02c0,0,0,0,0,.01l-6.49,43.77s0,0,0,0c0,0,0,0,0,0l-2.18,16.87s0,.01,0,.02c0,0,0,.01,0,.02v237.58c0,3,6.52,4.34,12.99,4.34s12.99-1.34,12.99-4.34v-237.58s0-.01,0-.02Z"/>
      <polygon class="cls-10" points="84.85 556.4 84.85 543.32 96.33 550.9 84.85 556.4"/>
      <polygon class="cls-9" points="64.28 556.4 64.28 543.32 52.8 550.9 64.28 556.4"/>
      <polygon class="cls-8" points="64.37 559.3 52.62 569.28 52.62 590.49 64.37 587.8 64.37 559.3"/>
      <path class="cls-17" d="M73.78,559.3v32.12c.08,0,.15,0,.23,0,6.46,0,12.98-1.35,12.98-4.34v-27.79h-13.21Z"/>
      <rect class="cls-7" x="72.59" y="559.3" width="2.83" height="32.88"/>
      <rect class="cls-6" x="73.25" y="353.5" width="1.52" height="11.69"/>
      <polygon class="cls-11" points="83.75 559.3 95.51 569.28 95.51 590.49 83.75 587.8 83.75 559.3"/>
    </g>
  </g>
</svg>