<?xml version="1.0" encoding="UTF-8"?>
<svg xmlns="http://www.w3.org/2000/svg" xmlns:xlink="http://www.w3.org/1999/xlink" viewBox="0 0 144 614.57">
  <defs>
    <style>
      .cls-1, .cls-2, .cls-3, .cls-4, .cls-5, .cls-6, .cls-7, .cls-8 {
        fill: none;
      }

      .cls-2, .cls-9, .cls-10, .cls-11, .cls-3, .cls-12, .cls-13, .cls-14 {
        stroke-linejoin: round;
      }

      .cls-2, .cls-3 {
        stroke: #353531;
      }

      .cls-15 {
        clip-path: url(#clippath);
      }

      .cls-16, .cls-17 {
        fill: #99968a;
      }

      .cls-18 {
        fill: #d8d5c5;
      }

      .cls-19, .cls-11 {
        fill: #bcb8a6;
      }

      .cls-20, .cls-21, .cls-22 {
        fill: #ccc9ba;
      }

      .cls-9 {
        fill: url(#linear-gradient-4);
      }

      .cls-9, .cls-11 {
        stroke: url(#linear-gradient-3);
      }

      .cls-23 {
        fill: url(#linear-gradient-6);
      }

      .cls-23, .cls-24, .cls-25, .cls-26, .cls-27 {
        mix-blend-mode: multiply;
      }

      .cls-24 {
        fill: url(#linear-gradient-5);
      }

      .cls-10 {
        fill: url(#linear-gradient);
        stroke: url(#linear-gradient-2);
      }

      .cls-3, .cls-4 {
        stroke-width: .75px;
      }

      .cls-4, .cls-21, .cls-28, .cls-5, .cls-17, .cls-22, .cls-6, .cls-7, .cls-8 {
        stroke-miterlimit: 10;
      }

      .cls-4, .cls-6 {
        stroke: #898983;
      }

      .cls-21 {
        stroke: #ccc9ba;
      }

      .cls-28 {
        fill: #424b56;
        stroke: #424b56;
      }

      .cls-5, .cls-7 {
        stroke: #bcb8a6;
      }

      .cls-12 {
        fill: url(#linear-gradient-7);
        stroke: url(#linear-gradient-8);
      }

      .cls-12, .cls-13, .cls-14 {
        stroke-linecap: round;
      }

      .cls-13 {
        fill: url(#linear-gradient-11);
        stroke: url(#linear-gradient-12);
      }

      .cls-29 {
        fill: url(#linear-gradient-14);
      }

      .cls-30 {
        fill: url(#linear-gradient-15);
      }

      .cls-31 {
        fill: url(#linear-gradient-16);
      }

      .cls-32 {
        fill: url(#linear-gradient-17);
      }

      .cls-33 {
        isolation: isolate;
      }

      .cls-14 {
        fill: url(#linear-gradient-9);
        stroke: url(#linear-gradient-10);
      }

      .cls-25 {
        fill: url(#linear-gradient-19);
      }

      .cls-26 {
        fill: url(#linear-gradient-18);
      }

      .cls-27 {
        fill: url(#linear-gradient-13);
      }

      .cls-17 {
        stroke: url(#linear-gradient-20);
      }

      .cls-22 {
        stroke: url(#linear-gradient-21);
      }

      .cls-6, .cls-7 {
        stroke-width: .25px;
      }

      .cls-8 {
        stroke: #a77f3d;
        stroke-width: .5px;
      }
    </style>
    <linearGradient id="linear-gradient" x1="54.36" y1="166.82" x2="89.64" y2="166.82" gradientUnits="userSpaceOnUse">
      <stop offset=".35" stop-color="#e7e5db"/>
      <stop offset=".47" stop-color="#e1dfd5"/>
      <stop offset=".62" stop-color="#d0cec5"/>
      <stop offset=".79" stop-color="#b4b3ab"/>
      <stop offset=".98" stop-color="#8d8d87"/>
      <stop offset="1" stop-color="#898983"/>
    </linearGradient>
    <linearGradient id="linear-gradient-2" x1="53.86" y1="166.82" x2="90.14" y2="166.82" gradientUnits="userSpaceOnUse">
      <stop offset=".5" stop-color="#e7e5db"/>
      <stop offset=".59" stop-color="#dcdad0"/>
      <stop offset=".76" stop-color="#bfbeb6"/>
      <stop offset=".97" stop-color="#91908a"/>
      <stop offset="1" stop-color="#898983"/>
    </linearGradient>
    <linearGradient id="linear-gradient-3" x1="53.86" y1="379.17" x2="90.14" y2="379.17" gradientUnits="userSpaceOnUse">
      <stop offset=".36" stop-color="#d8d5c5"/>
      <stop offset=".5" stop-color="#d8d5c5"/>
      <stop offset=".61" stop-color="#cdcabc"/>
      <stop offset=".79" stop-color="#b0afa4"/>
      <stop offset="1" stop-color="#898983"/>
    </linearGradient>
    <linearGradient id="linear-gradient-4" x1="54.36" y1="379.17" x2="89.64" y2="379.17" gradientUnits="userSpaceOnUse">
      <stop offset=".12" stop-color="#d8d5c5"/>
      <stop offset=".29" stop-color="#d8d5c5"/>
      <stop offset=".4" stop-color="#d8d5c5"/>
      <stop offset=".53" stop-color="#cdcabc"/>
      <stop offset=".75" stop-color="#b0afa4"/>
      <stop offset="1" stop-color="#898983"/>
    </linearGradient>
    <linearGradient id="linear-gradient-5" x1="61.96" y1="246.21" x2="75.54" y2="246.21" gradientUnits="userSpaceOnUse">
      <stop offset="0" stop-color="#898983" stop-opacity=".6"/>
      <stop offset=".35" stop-color="#bfbdb0" stop-opacity=".18"/>
      <stop offset=".5" stop-color="#d8d5c5" stop-opacity="0"/>
    </linearGradient>
    <linearGradient id="linear-gradient-6" x1="54.43" y1="418.74" x2="58.39" y2="418.74" gradientTransform="translate(15.59 -70.09)" gradientUnits="userSpaceOnUse">
      <stop offset="0" stop-color="#898983"/>
      <stop offset=".22" stop-color="#aaa89e" stop-opacity=".58"/>
      <stop offset=".5" stop-color="#d8d5c5" stop-opacity="0"/>
    </linearGradient>
    <linearGradient id="linear-gradient-7" x1="61.96" y1="130.22" x2="82.04" y2="130.22" gradientUnits="userSpaceOnUse">
      <stop offset=".37" stop-color="#f0a73e"/>
      <stop offset=".38" stop-color="#eca43d"/>
      <stop offset=".52" stop-color="#d29236"/>
      <stop offset=".64" stop-color="#c28732"/>
      <stop offset=".73" stop-color="#bd8431"/>
      <stop offset="1" stop-color="#d59437"/>
    </linearGradient>
    <linearGradient id="linear-gradient-8" x1="61.46" y1="130.22" x2="82.54" y2="130.22" gradientUnits="userSpaceOnUse">
      <stop offset="0" stop-color="#f0b560"/>
      <stop offset=".37" stop-color="#f0a73e"/>
      <stop offset=".58" stop-color="#de9b39"/>
      <stop offset="1" stop-color="#bd8431"/>
    </linearGradient>
    <linearGradient id="linear-gradient-9" x1="58.67" y1="149.67" x2="85.33" y2="149.67" xlink:href="#linear-gradient-7"/>
    <linearGradient id="linear-gradient-10" x1="58.17" y1="149.67" x2="85.83" y2="149.67" xlink:href="#linear-gradient-8"/>
    <linearGradient id="linear-gradient-11" x1="61.96" y1="103.74" x2="82.04" y2="103.74" xlink:href="#linear-gradient-7"/>
    <linearGradient id="linear-gradient-12" x1="61.46" y1="103.74" x2="82.54" y2="103.74" xlink:href="#linear-gradient-8"/>
    <linearGradient id="linear-gradient-13" x1="54.85" y1="336.12" x2="91.51" y2="311.98" gradientUnits="userSpaceOnUse">
      <stop offset="0" stop-color="#898983"/>
      <stop offset=".02" stop-color="#93938c" stop-opacity=".86"/>
      <stop offset=".05" stop-color="#a6a49b" stop-opacity=".63"/>
      <stop offset=".09" stop-color="#b5b4a8" stop-opacity=".43"/>
      <stop offset=".14" stop-color="#c2c0b2" stop-opacity=".27"/>
      <stop offset=".19" stop-color="#ccc9bb" stop-opacity=".15"/>
      <stop offset=".26" stop-color="#d3d0c0" stop-opacity=".06"/>
      <stop offset=".35" stop-color="#d6d3c4" stop-opacity=".01"/>
      <stop offset=".61" stop-color="#d8d5c5" stop-opacity="0"/>
    </linearGradient>
    <linearGradient id="linear-gradient-14" x1="82.65" y1="323.38" x2="93.76" y2="323.38" gradientUnits="userSpaceOnUse">
      <stop offset=".12" stop-color="#d8d5c5"/>
      <stop offset=".39" stop-color="#d8d5c5"/>
      <stop offset=".5" stop-color="#d8d5c5"/>
      <stop offset=".61" stop-color="#cdcabc"/>
      <stop offset=".79" stop-color="#b0afa4"/>
      <stop offset="1" stop-color="#898983"/>
    </linearGradient>
    <linearGradient id="linear-gradient-15" x1="82.63" y1="338.53" x2="93.76" y2="338.53" gradientUnits="userSpaceOnUse">
      <stop offset="0" stop-color="#d8d5c5"/>
      <stop offset=".31" stop-color="#d8d5c5"/>
      <stop offset=".46" stop-color="#cdcabc"/>
      <stop offset=".71" stop-color="#b0afa4"/>
      <stop offset="1" stop-color="#898983"/>
    </linearGradient>
    <linearGradient id="linear-gradient-16" x1="50.24" y1="323.38" x2="61.35" y2="323.38" xlink:href="#linear-gradient-14"/>
    <linearGradient id="linear-gradient-17" x1="50.24" y1="338.53" x2="61.37" y2="338.53" gradientUnits="userSpaceOnUse">
      <stop offset="0" stop-color="#d8d5c5"/>
      <stop offset=".32" stop-color="#d8d5c5"/>
      <stop offset="1" stop-color="#898983"/>
    </linearGradient>
    <linearGradient id="linear-gradient-18" x1="61.96" y1="443.4" x2="75.54" y2="443.4" gradientUnits="userSpaceOnUse">
      <stop offset="0" stop-color="#898983"/>
      <stop offset="0" stop-color="#8b8b85" stop-opacity=".58"/>
      <stop offset="0" stop-color="#8d8d86" stop-opacity=".4"/>
      <stop offset=".5" stop-color="#d8d5c5" stop-opacity="0"/>
    </linearGradient>
    <linearGradient id="linear-gradient-19" x1="53.92" y1="544.94" x2="90.08" y2="575.29" gradientUnits="userSpaceOnUse">
      <stop offset=".5" stop-color="#d8d5c5" stop-opacity="0"/>
      <stop offset="1" stop-color="#8d8d86" stop-opacity=".4"/>
      <stop offset="1" stop-color="#8b8b85" stop-opacity=".58"/>
      <stop offset="1" stop-color="#898983"/>
    </linearGradient>
    <linearGradient id="linear-gradient-20" x1="100.36" y1="563.93" x2="84.14" y2="563.93" gradientUnits="userSpaceOnUse">
      <stop offset="0" stop-color="#d8d5c5"/>
      <stop offset=".33" stop-color="#b8b7ab"/>
      <stop offset=".77" stop-color="#96958e"/>
      <stop offset="1" stop-color="#898983"/>
    </linearGradient>
    <linearGradient id="linear-gradient-21" x1="43.64" y1="563.93" x2="59.86" y2="563.93" gradientUnits="userSpaceOnUse">
      <stop offset="0" stop-color="#d8d5c5"/>
      <stop offset=".5" stop-color="#c7c4b3"/>
      <stop offset="1" stop-color="#bcb8a6"/>
    </linearGradient>
    <clipPath id="clippath">
      <polygon class="cls-1" points="82.04 118.19 75.31 89.3 68.69 89.3 61.96 118.19 82.04 118.19"/>
    </clipPath>
  </defs>
  <g class="cls-33">
    <g id="Layer_5" data-name="Layer 5">
      <polygon class="cls-10" points="58.67 157.09 54.36 176.55 89.64 176.55 85.33 157.09 58.67 157.09"/>
      <rect class="cls-11" x="54.36" y="176.55" width="35.28" height="405.23"/>
      <rect class="cls-9" x="54.36" y="176.55" width="35.28" height="405.23"/>
      <line class="cls-5" x1="84.54" y1="488.15" x2="84.54" y2="531.54"/>
      <rect class="cls-24" x="61.96" y="190.06" width="13.58" height="112.3"/>
      <rect class="cls-23" x="70.02" y="331" width="3.96" height="35.28" transform="translate(420.64 276.64) rotate(90)"/>
      <rect class="cls-12" x="61.96" y="118.19" width="20.09" height="24.07"/>
      <polygon class="cls-14" points="82.04 142.25 61.96 142.25 58.67 157.09 85.33 157.09 82.04 142.25"/>
      <polygon class="cls-13" points="82.04 118.19 75.31 89.3 68.69 89.3 61.96 118.19 82.04 118.19"/>
      <line class="cls-6" x1="54.36" y1="206.15" x2="89.64" y2="206.15"/>
      <line class="cls-6" x1="54.36" y1="241.92" x2="89.64" y2="241.92"/>
      <line class="cls-6" x1="54.36" y1="254.36" x2="89.64" y2="254.36"/>
      <line class="cls-6" x1="54.36" y1="290.95" x2="89.64" y2="290.95"/>
      <line class="cls-6" x1="54.36" y1="336.71" x2="89.64" y2="336.71"/>
      <line class="cls-4" x1="54.36" y1="347.66" x2="89.64" y2="347.66"/>
      <line class="cls-4" x1="54.36" y1="349.67" x2="89.64" y2="349.67"/>
      <line class="cls-6" x1="54.36" y1="371.06" x2="89.64" y2="371.06"/>
      <line class="cls-6" x1="54.36" y1="397.08" x2="89.64" y2="397.08"/>
      <line class="cls-6" x1="54.36" y1="437.29" x2="89.64" y2="437.29"/>
      <line class="cls-7" x1="54.36" y1="533.65" x2="89.64" y2="533.65"/>
      <rect class="cls-27" x="54.36" y="312.28" width="21.18" height="34.38"/>
      <g>
        <path class="cls-29" d="M88.21,317.3c-.27-.64-.8-1-1.38-.93-.57,.07-1.04,.57-1.21,1.26l-2.96,12.75h11.1l-5.55-13.09Z"/>
        <polygon class="cls-30" points="82.65 330.39 82.63 346.66 93.76 346.66 93.76 330.41 93.76 330.39 82.65 330.39"/>
      </g>
      <g>
        <path class="cls-31" d="M55.79,317.3c.27-.64,.8-1,1.38-.93,.57,.07,1.04,.57,1.21,1.26l2.96,12.75h-11.1s5.55-13.09,5.55-13.09Z"/>
        <polygon class="cls-32" points="61.35 330.39 61.37 346.66 50.24 346.66 50.24 330.41 50.24 330.39 61.35 330.39"/>
      </g>
      <polygon class="cls-20" points="84.04 491.58 92.29 489.31 92.29 464.73 88.17 444.84 84.04 444.84 84.04 491.58"/>
      <polygon class="cls-18" points="92.29 464.73 92.29 489.31 89.05 490.2 89.05 465.38 84.36 444.84 88.16 444.84 92.29 464.73"/>
      <rect class="cls-21" x="58.67" y="190.52" width="2.92" height="111.39"/>
      <rect class="cls-18" x="58.67" y="190.52" width="2.92" height="4.15"/>
      <rect class="cls-16" x="58.67" y="297.76" width="2.92" height="4.15"/>
      <rect class="cls-26" x="61.96" y="354.56" width="13.58" height="177.68"/>
      <rect class="cls-25" x="59.36" y="538.45" width="25.27" height="43.33"/>
      <rect class="cls-21" x="58.67" y="355.29" width="2.92" height="176.23"/>
      <rect class="cls-18" x="58.67" y="355.29" width="2.92" height="6.56"/>
      <rect class="cls-16" x="58.67" y="524.96" width="2.92" height="6.56"/>
      <polygon class="cls-17" points="84.64 538.93 99.86 570.14 99.86 590.61 84.64 590.61 84.64 538.93"/>
      <polygon class="cls-22" points="59.36 538.93 44.14 570.14 44.14 590.61 59.36 590.61 59.36 538.93"/>
      <polygon class="cls-19" points="92.3 464.73 92.3 489.31 89.06 490.2 89.06 465.38 92.3 464.73"/>
      <g class="cls-15">
        <line class="cls-8" x1="54.36" y1="100.05" x2="89.64" y2="100.05"/>
        <line class="cls-8" x1="54.36" y1="102.05" x2="89.64" y2="102.05"/>
      </g>
      <g>
        <line class="cls-3" x1="67.64" y1="202.9" x2="73" y2="202.9"/>
        <line class="cls-3" x1="67.64" y1="199.82" x2="73" y2="199.82"/>
        <line class="cls-3" x1="74.65" y1="202.9" x2="80.01" y2="202.9"/>
        <line class="cls-3" x1="74.65" y1="199.82" x2="80.01" y2="199.82"/>
      </g>
      <g>
        <line class="cls-3" x1="67.64" y1="212.9" x2="73" y2="212.9"/>
        <line class="cls-3" x1="67.64" y1="209.83" x2="73" y2="209.83"/>
        <line class="cls-3" x1="74.65" y1="212.9" x2="80.01" y2="212.9"/>
        <line class="cls-3" x1="74.65" y1="209.83" x2="80.01" y2="209.83"/>
      </g>
      <g>
        <line class="cls-3" x1="67.64" y1="222.91" x2="73" y2="222.91"/>
        <line class="cls-3" x1="67.64" y1="219.83" x2="73" y2="219.83"/>
        <line class="cls-3" x1="74.65" y1="222.91" x2="80.01" y2="222.91"/>
        <line class="cls-3" x1="74.65" y1="219.83" x2="80.01" y2="219.83"/>
      </g>
      <g>
        <line class="cls-3" x1="67.64" y1="267.95" x2="73" y2="267.95"/>
        <line class="cls-3" x1="67.64" y1="264.87" x2="73" y2="264.87"/>
        <line class="cls-3" x1="74.65" y1="267.95" x2="80.01" y2="267.95"/>
        <line class="cls-3" x1="74.65" y1="264.87" x2="80.01" y2="264.87"/>
      </g>
      <g>
        <line class="cls-3" x1="67.64" y1="277.96" x2="73" y2="277.96"/>
        <line class="cls-3" x1="67.64" y1="274.88" x2="73" y2="274.88"/>
        <line class="cls-3" x1="74.65" y1="277.96" x2="80.01" y2="277.96"/>
        <line class="cls-3" x1="74.65" y1="274.88" x2="80.01" y2="274.88"/>
      </g>
      <g>
        <line class="cls-3" x1="67.64" y1="287.96" x2="73" y2="287.96"/>
        <line class="cls-3" x1="67.64" y1="284.89" x2="73" y2="284.89"/>
        <line class="cls-3" x1="74.65" y1="287.96" x2="80.01" y2="287.96"/>
        <line class="cls-3" x1="74.65" y1="284.89" x2="80.01" y2="284.89"/>
      </g>
      <g>
        <line class="cls-3" x1="67.64" y1="378.04" x2="73" y2="378.04"/>
        <line class="cls-3" x1="67.64" y1="374.96" x2="73" y2="374.96"/>
        <line class="cls-3" x1="74.65" y1="378.04" x2="80.01" y2="378.04"/>
        <line class="cls-3" x1="74.65" y1="374.96" x2="80.01" y2="374.96"/>
      </g>
      <g>
        <line class="cls-3" x1="67.64" y1="388.04" x2="73" y2="388.04"/>
        <line class="cls-3" x1="67.64" y1="384.97" x2="73" y2="384.97"/>
        <line class="cls-3" x1="74.65" y1="388.04" x2="80.01" y2="388.04"/>
        <line class="cls-3" x1="74.65" y1="384.97" x2="80.01" y2="384.97"/>
      </g>
      <g>
        <line class="cls-3" x1="67.64" y1="398.05" x2="73" y2="398.05"/>
        <line class="cls-3" x1="67.64" y1="394.97" x2="73" y2="394.97"/>
        <line class="cls-3" x1="74.65" y1="398.05" x2="80.01" y2="398.05"/>
        <line class="cls-3" x1="74.65" y1="394.97" x2="80.01" y2="394.97"/>
      </g>
      <g>
        <line class="cls-3" x1="67.64" y1="438.08" x2="73" y2="438.08"/>
        <line class="cls-3" x1="67.64" y1="435.01" x2="73" y2="435.01"/>
        <line class="cls-3" x1="74.65" y1="438.08" x2="80.01" y2="438.08"/>
        <line class="cls-3" x1="74.65" y1="435.01" x2="80.01" y2="435.01"/>
      </g>
      <g>
        <line class="cls-3" x1="67.64" y1="488.12" x2="73" y2="488.12"/>
        <line class="cls-3" x1="67.64" y1="485.05" x2="73" y2="485.05"/>
        <line class="cls-3" x1="74.65" y1="488.12" x2="80.01" y2="488.12"/>
        <line class="cls-3" x1="74.65" y1="485.05" x2="80.01" y2="485.05"/>
      </g>
      <g>
        <line class="cls-3" x1="67.64" y1="508.14" x2="73" y2="508.14"/>
        <line class="cls-3" x1="67.64" y1="505.06" x2="73" y2="505.06"/>
        <line class="cls-3" x1="74.65" y1="508.14" x2="80.01" y2="508.14"/>
        <line class="cls-3" x1="74.65" y1="505.06" x2="80.01" y2="505.06"/>
      </g>
      <g>
        <line class="cls-3" x1="67.64" y1="528.16" x2="73" y2="528.16"/>
        <line class="cls-3" x1="67.64" y1="525.08" x2="73" y2="525.08"/>
        <line class="cls-3" x1="74.65" y1="528.16" x2="80.01" y2="528.16"/>
        <line class="cls-3" x1="74.65" y1="525.08" x2="80.01" y2="525.08"/>
      </g>
      <line class="cls-2" x1="74.21" y1="445.05" x2="74.21" y2="477.66"/>
      <line class="cls-2" x1="73.81" y1="227.88" x2="73.81" y2="260.48"/>
      <path class="cls-28" d="M74.37,85.27c-.74-2.67-3.99-2.67-4.73,0l-.94,4.03h6.61l-.94-4.03Z"/>
    </g>
  </g>
</svg>