<?xml version="1.0" encoding="UTF-8"?>
<svg xmlns="http://www.w3.org/2000/svg" xmlns:xlink="http://www.w3.org/1999/xlink" viewBox="0 0 144 614.57">
  <defs>
    <style>
      .cls-1 {
        fill: #686b5e;
        stroke: url(#linear-gradient-9);
      }

      .cls-1, .cls-2, .cls-3, .cls-4, .cls-5, .cls-6 {
        stroke-width: .75px;
      }

      .cls-1, .cls-3, .cls-6 {
        stroke-miterlimit: 10;
      }

      .cls-7 {
        fill: none;
        stroke: #dce0cd;
      }

      .cls-7, .cls-2, .cls-4, .cls-5 {
        stroke-linejoin: round;
      }

      .cls-2 {
        fill: url(#linear-gradient);
        stroke: url(#linear-gradient-2);
      }

      .cls-2, .cls-4, .cls-5 {
        stroke-linecap: round;
      }

      .cls-3 {
        fill: #dce0cd;
        stroke: url(#linear-gradient-7);
      }

      .cls-4 {
        fill: url(#linear-gradient-3);
        stroke: url(#linear-gradient-4);
      }

      .cls-8 {
        fill: url(#linear-gradient-8);
        mix-blend-mode: multiply;
      }

      .cls-5 {
        fill: #919485;
        stroke: url(#linear-gradient-10);
      }

      .cls-9 {
        fill: url(#linear-gradient-6);
      }

      .cls-10 {
        fill: url(#linear-gradient-5);
      }

      .cls-11 {
        isolation: isolate;
      }

      .cls-6 {
        fill: #606057;
        stroke: #606057;
      }
    </style>
    <linearGradient id="linear-gradient" x1="61.38" y1="469.3" x2="86.63" y2="469.3" gradientUnits="userSpaceOnUse">
      <stop offset=".19" stop-color="#dce0cd"/>
      <stop offset=".68" stop-color="#919485"/>
      <stop offset=".86" stop-color="#7b7e70"/>
      <stop offset="1" stop-color="#686b5e"/>
    </linearGradient>
    <linearGradient id="linear-gradient-2" x1="61" y1="469.3" x2="87.01" y2="469.3" gradientUnits="userSpaceOnUse">
      <stop offset=".35" stop-color="#dce0cd"/>
      <stop offset=".48" stop-color="#c1c5b3"/>
      <stop offset=".64" stop-color="#a6aa99"/>
      <stop offset=".79" stop-color="#96998a"/>
      <stop offset=".9" stop-color="#919485"/>
    </linearGradient>
    <linearGradient id="linear-gradient-3" x1="61.38" y1="319.18" x2="86.63" y2="319.18" gradientUnits="userSpaceOnUse">
      <stop offset=".19" stop-color="#dce0cd"/>
      <stop offset=".38" stop-color="#d7dbc8"/>
      <stop offset=".38" stop-color="#d5d9c6"/>
      <stop offset=".68" stop-color="#919485"/>
      <stop offset=".86" stop-color="#7b7e70"/>
      <stop offset="1" stop-color="#686b5e"/>
    </linearGradient>
    <linearGradient id="linear-gradient-4" x1="64.48" y1="318.26" x2="91.68" y2="323.06" gradientUnits="userSpaceOnUse">
      <stop offset="0" stop-color="#dce0cd"/>
      <stop offset=".17" stop-color="#d9ddca"/>
      <stop offset=".29" stop-color="#cfd3c1"/>
      <stop offset=".4" stop-color="#bfc3b1"/>
      <stop offset=".5" stop-color="#a9ad9c"/>
      <stop offset=".58" stop-color="#919485"/>
    </linearGradient>
    <linearGradient id="linear-gradient-5" x1="82.28" y1="562.41" x2="87.73" y2="555.83" gradientUnits="userSpaceOnUse">
      <stop offset=".47" stop-color="#686b5e"/>
      <stop offset=".56" stop-color="#686b5e" stop-opacity=".94"/>
      <stop offset=".67" stop-color="#686b5e" stop-opacity=".78"/>
      <stop offset=".8" stop-color="#686b5e" stop-opacity=".52"/>
      <stop offset=".95" stop-color="#686b5e" stop-opacity=".15"/>
      <stop offset="1" stop-color="#686b5e" stop-opacity="0"/>
    </linearGradient>
    <linearGradient id="linear-gradient-6" x1="1421.32" y1="562.43" x2="1426.8" y2="555.81" gradientTransform="translate(-1361.39 1117.78) scale(1 -1)" gradientUnits="userSpaceOnUse">
      <stop offset=".26" stop-color="#686b5e"/>
      <stop offset=".48" stop-color="#686b5e" stop-opacity=".6"/>
      <stop offset=".84" stop-color="#686b5e" stop-opacity="0"/>
    </linearGradient>
    <linearGradient id="linear-gradient-7" x1="52.6" y1="566.14" x2="70.15" y2="587.05" gradientUnits="userSpaceOnUse">
      <stop offset=".17" stop-color="#dce0cd"/>
      <stop offset=".21" stop-color="#d5d9c6"/>
      <stop offset=".63" stop-color="#919485"/>
      <stop offset=".83" stop-color="#7b7e70"/>
      <stop offset="1" stop-color="#686b5e"/>
    </linearGradient>
    <linearGradient id="linear-gradient-8" x1="86.74" y1="569.36" x2="68.56" y2="577.01" gradientUnits="userSpaceOnUse">
      <stop offset=".37" stop-color="#ccc4aa" stop-opacity="0"/>
      <stop offset=".51" stop-color="#b6af97" stop-opacity=".37"/>
      <stop offset=".69" stop-color="#9d9580" stop-opacity=".82"/>
      <stop offset=".77" stop-color="#938c77"/>
    </linearGradient>
    <linearGradient id="linear-gradient-9" x1="76.89" y1="584.05" x2="94.53" y2="569.24" xlink:href="#linear-gradient-7"/>
    <linearGradient id="linear-gradient-10" x1="72.21" y1="574.25" x2="75.79" y2="574.25" xlink:href="#linear-gradient-7"/>
  </defs>
  <g class="cls-11">
    <g id="Layer_1_copy" data-name="Layer 1 copy">
      <path class="cls-2" d="M86.63,349.5h-25.26v19.67h0v215.91c0,5.35,25.26,5.35,25.26,0v-215.91h0v-19.67Z"/>
      <polygon class="cls-4" points="84.45 332.63 84.45 332.63 77.97 288.85 70.05 288.85 63.55 332.63 61.38 349.5 86.63 349.5 84.45 332.63"/>
      <rect class="cls-10" x="83.4" y="552.86" width="3.59" height="12.06"/>
      <rect class="cls-9" x="61.02" y="552.86" width="3.69" height="12.06" transform="translate(125.72 1117.78) rotate(-180)"/>
      <path class="cls-6" d="M72.21,281.16l-2.16,7.69h7.92l-2.16-7.69c-.36-1.29-3.24-1.29-3.6,0Z"/>
      <g>
        <line class="cls-7" x1="67.66" y1="369" x2="80.35" y2="369"/>
        <line class="cls-7" x1="67.66" y1="365.35" x2="80.35" y2="365.35"/>
      </g>
      <g>
        <line class="cls-7" x1="67.66" y1="389.01" x2="80.35" y2="389.01"/>
        <line class="cls-7" x1="67.66" y1="385.36" x2="80.35" y2="385.36"/>
      </g>
      <g>
        <line class="cls-7" x1="67.66" y1="409.03" x2="80.35" y2="409.03"/>
        <line class="cls-7" x1="67.66" y1="405.38" x2="80.35" y2="405.38"/>
      </g>
      <g>
        <line class="cls-7" x1="67.66" y1="549.14" x2="80.35" y2="549.14"/>
        <line class="cls-7" x1="67.66" y1="545.49" x2="80.35" y2="545.49"/>
      </g>
      <g>
        <line class="cls-7" x1="67.66" y1="529.12" x2="80.35" y2="529.12"/>
        <line class="cls-7" x1="67.66" y1="525.47" x2="80.35" y2="525.47"/>
      </g>
    </g>
    <g id="Layer_5" data-name="Layer 5">
      <polygon class="cls-3" points="64.37 557.3 53.62 575.28 53.62 591.21 64.37 591.21 64.37 557.3"/>
      <path class="cls-8" d="M73.78,557.3v32.12c.08,0,.15,0,.23,0,6.46,0,12.98-1.35,12.98-4.34v-27.79h-13.21Z"/>
      <polygon class="cls-1" points="83.75 557.3 94.51 575.28 94.51 591.24 83.75 591.4 83.75 557.3"/>
      <rect class="cls-5" x="72.59" y="557.3" width="2.83" height="33.91"/>
    </g>
  </g>
</svg>