<?xml version="1.0" encoding="UTF-8"?>
<svg xmlns="http://www.w3.org/2000/svg" xmlns:xlink="http://www.w3.org/1999/xlink" viewBox="0 0 144 614.57">
  <defs>
    <style>
      .cls-1 {
        fill: #e3e8b1;
        stroke: url(#linear-gradient-7);
      }

      .cls-1, .cls-2, .cls-3, .cls-4, .cls-5, .cls-6 {
        stroke-width: .75px;
      }

      .cls-1, .cls-2, .cls-6 {
        stroke-miterlimit: 10;
      }

      .cls-2 {
        fill: #8b8e6e;
        stroke: url(#linear-gradient-9);
      }

      .cls-7 {
        fill: none;
        stroke: #dce0cd;
      }

      .cls-7, .cls-3, .cls-4, .cls-5 {
        stroke-linejoin: round;
      }

      .cls-3 {
        fill: url(#linear-gradient);
        stroke: url(#linear-gradient-2);
      }

      .cls-3, .cls-4, .cls-5 {
        stroke-linecap: round;
      }

      .cls-4 {
        fill: url(#linear-gradient-3);
        stroke: url(#linear-gradient-4);
      }

      .cls-8 {
        fill: url(#linear-gradient-8);
      }

      .cls-8, .cls-9 {
        mix-blend-mode: multiply;
      }

      .cls-5 {
        fill: #b1b78a;
        stroke: url(#linear-gradient-10);
      }

      .cls-9 {
        fill: url(#linear-gradient-11);
        opacity: .4;
      }

      .cls-10 {
        fill: url(#linear-gradient-6);
      }

      .cls-11 {
        fill: url(#linear-gradient-5);
      }

      .cls-12 {
        isolation: isolate;
      }

      .cls-6 {
        fill: #606057;
        stroke: #606057;
      }
    </style>
    <linearGradient id="linear-gradient" x1="61.38" y1="469.3" x2="86.63" y2="469.3" gradientUnits="userSpaceOnUse">
      <stop offset=".19" stop-color="#e3e8b1"/>
      <stop offset=".68" stop-color="#b1b78a"/>
      <stop offset=".86" stop-color="#9da17b"/>
      <stop offset="1" stop-color="#8b8e6e"/>
    </linearGradient>
    <linearGradient id="linear-gradient-2" x1="61" y1="469.3" x2="87.01" y2="469.3" gradientUnits="userSpaceOnUse">
      <stop offset=".3" stop-color="#e3e8b1"/>
      <stop offset=".32" stop-color="#dfe4ae"/>
      <stop offset=".49" stop-color="#bbbf92"/>
      <stop offset=".65" stop-color="#a0a47e"/>
      <stop offset=".79" stop-color="#909372"/>
      <stop offset=".9" stop-color="#8b8e6e"/>
    </linearGradient>
    <linearGradient id="linear-gradient-3" x1="61.38" y1="319.18" x2="86.63" y2="319.18" gradientUnits="userSpaceOnUse">
      <stop offset=".25" stop-color="#6cb793"/>
      <stop offset=".46" stop-color="#4a896d"/>
      <stop offset=".63" stop-color="#39735a"/>
      <stop offset=".76" stop-color="#2c634c"/>
    </linearGradient>
    <linearGradient id="linear-gradient-4" x1="61" y1="319.18" x2="87.01" y2="319.18" gradientUnits="userSpaceOnUse">
      <stop offset="0" stop-color="#abd6c1"/>
      <stop offset=".37" stop-color="#6cb793"/>
      <stop offset=".84" stop-color="#2c634c"/>
    </linearGradient>
    <linearGradient id="linear-gradient-5" x1="82.28" y1="562.41" x2="87.73" y2="555.83" gradientUnits="userSpaceOnUse">
      <stop offset=".47" stop-color="#8b8e6e"/>
      <stop offset=".54" stop-color="#8b8e6e" stop-opacity=".96"/>
      <stop offset=".64" stop-color="#8b8e6e" stop-opacity=".84"/>
      <stop offset=".75" stop-color="#8b8e6e" stop-opacity=".63"/>
      <stop offset=".87" stop-color="#8b8e6e" stop-opacity=".36"/>
      <stop offset="1" stop-color="#8b8e6e" stop-opacity="0"/>
      <stop offset="1" stop-color="#8b8e6e" stop-opacity="0"/>
    </linearGradient>
    <linearGradient id="linear-gradient-6" x1="1748.92" y1="562.43" x2="1754.4" y2="555.81" gradientTransform="translate(-1688.99 1117.78) scale(1 -1)" gradientUnits="userSpaceOnUse">
      <stop offset=".26" stop-color="#8b8e6e"/>
      <stop offset=".57" stop-color="#8b8e6e" stop-opacity=".45"/>
      <stop offset=".84" stop-color="#8b8e6e" stop-opacity="0"/>
    </linearGradient>
    <linearGradient id="linear-gradient-7" x1="54.37" y1="572.08" x2="69.8" y2="577.69" xlink:href="#linear-gradient-2"/>
    <linearGradient id="linear-gradient-8" x1="86.74" y1="569.36" x2="68.56" y2="577.01" gradientUnits="userSpaceOnUse">
      <stop offset=".37" stop-color="#ccc4aa" stop-opacity="0"/>
      <stop offset=".51" stop-color="#b6af97" stop-opacity=".37"/>
      <stop offset=".69" stop-color="#9d9580" stop-opacity=".82"/>
      <stop offset=".77" stop-color="#938c77"/>
    </linearGradient>
    <linearGradient id="linear-gradient-9" x1="76.89" y1="584.05" x2="94.53" y2="569.24" xlink:href="#linear-gradient-2"/>
    <linearGradient id="linear-gradient-10" x1="72.21" y1="574.25" x2="75.79" y2="574.25" xlink:href="#linear-gradient-2"/>
    <linearGradient id="linear-gradient-11" x1="53.24" y1="435.8" x2="94.88" y2="435.8" gradientUnits="userSpaceOnUse">
      <stop offset=".17" stop-color="#e3e8b1"/>
      <stop offset=".63" stop-color="#b1b78a"/>
      <stop offset=".8" stop-color="#c6cb9a"/>
      <stop offset="1" stop-color="#e3e8b1"/>
    </linearGradient>
  </defs>
  <g class="cls-12">
    <g id="Layer_5" data-name="Layer 5">
      <path class="cls-3" d="M86.63,349.5h-25.26v19.67h0v215.91c0,5.35,25.26,5.35,25.26,0v-215.91h0v-19.67Z"/>
      <polygon class="cls-4" points="84.45 332.63 84.45 332.63 77.97 288.85 70.05 288.85 63.55 332.63 61.38 349.5 86.63 349.5 84.45 332.63"/>
      <rect class="cls-11" x="83.4" y="552.86" width="3.59" height="12.06"/>
      <rect class="cls-10" x="61.02" y="552.86" width="3.69" height="12.06" transform="translate(125.72 1117.78) rotate(-180)"/>
      <path class="cls-6" d="M72.21,281.16l-2.16,7.69h7.92l-2.16-7.69c-.36-1.29-3.24-1.29-3.6,0Z"/>
      <g>
        <line class="cls-7" x1="67.66" y1="369" x2="80.35" y2="369"/>
        <line class="cls-7" x1="67.66" y1="365.35" x2="80.35" y2="365.35"/>
      </g>
      <g>
        <line class="cls-7" x1="67.66" y1="389.01" x2="80.35" y2="389.01"/>
        <line class="cls-7" x1="67.66" y1="385.36" x2="80.35" y2="385.36"/>
      </g>
      <g>
        <line class="cls-7" x1="67.66" y1="409.03" x2="80.35" y2="409.03"/>
        <line class="cls-7" x1="67.66" y1="405.38" x2="80.35" y2="405.38"/>
      </g>
      <g>
        <line class="cls-7" x1="67.66" y1="549.14" x2="80.35" y2="549.14"/>
        <line class="cls-7" x1="67.66" y1="545.49" x2="80.35" y2="545.49"/>
      </g>
      <g>
        <line class="cls-7" x1="67.66" y1="529.12" x2="80.35" y2="529.12"/>
        <line class="cls-7" x1="67.66" y1="525.47" x2="80.35" y2="525.47"/>
      </g>
      <polygon class="cls-1" points="64.37 557.3 53.62 575.28 53.62 591.21 64.37 591.21 64.37 557.3"/>
      <path class="cls-8" d="M73.78,557.3v32.12c.08,0,.15,0,.23,0,6.46,0,12.98-1.35,12.98-4.34v-27.79h-13.21Z"/>
      <polygon class="cls-2" points="83.75 557.3 94.51 575.28 94.51 591.24 83.75 591.4 83.75 557.3"/>
      <rect class="cls-5" x="72.59" y="557.3" width="2.83" height="33.91"/>
      <path class="cls-9" d="M94.83,575.09l-7.82-13.08v-212.51s0-.02,0-.02c0,0,0-.02,0-.02l-2.18-16.87s0,0,0,0l-6.42-43.34h.06l-2.29-8.17c-.21-.75-1.06-1.24-2.16-1.24h0c-1.1,0-1.95,.49-2.16,1.24l-2.29,8.17h.06l-6.43,43.35-2.18,16.87s0,.02,0,.02c0,0,0,.02,0,.02v212.71l-7.71,12.89c-.03,.06-.05,.12-.05,.19v15.92c0,.21,.17,.38,.38,.38h10.76c.21,0,.38-.17,.38-.38v-2.9c2.04,.65,4.7,1.02,7.46,1.12v1.78c0,.21,.17,.38,.38,.38h2.83c.21,0,.38-.17,.38-.38v-1.78c2.82-.11,5.53-.49,7.58-1.16v3.13c0,.1,.04,.2,.11,.27,.07,.07,.16,.11,.26,.11h0l10.76-.16c.2,0,.37-.17,.37-.38v-15.95c0-.07-.02-.13-.05-.19Z"/>
    </g>
  </g>
</svg>