<?xml version="1.0" encoding="UTF-8"?>
<svg xmlns="http://www.w3.org/2000/svg" xmlns:xlink="http://www.w3.org/1999/xlink" viewBox="0 0 144 614.57">
  <defs>
    <style>
      .cls-1 {
        stroke: url(#linear-gradient);
      }

      .cls-1, .cls-2, .cls-3, .cls-4, .cls-5, .cls-6, .cls-7, .cls-8, .cls-9 {
        stroke-width: .75px;
      }

      .cls-1, .cls-2, .cls-3, .cls-4, .cls-5, .cls-8, .cls-9 {
        stroke-linecap: round;
        stroke-linejoin: round;
      }

      .cls-1, .cls-9 {
        fill: #ccc375;
      }

      .cls-10 {
        fill: #303030;
      }

      .cls-2 {
        fill: url(#linear-gradient-4);
        stroke: url(#linear-gradient-5);
      }

      .cls-3 {
        fill: url(#linear-gradient-8);
        stroke: url(#linear-gradient-9);
      }

      .cls-4 {
        fill: url(#linear-gradient-2);
        stroke: url(#linear-gradient-3);
      }

      .cls-5 {
        fill: url(#linear-gradient-6);
        stroke: url(#linear-gradient-7);
      }

      .cls-6 {
        fill: url(#linear-gradient-23);
        stroke: url(#linear-gradient-24);
      }

      .cls-6, .cls-7, .cls-11 {
        stroke-miterlimit: 10;
      }

      .cls-7 {
        fill: url(#linear-gradient-21);
        stroke: url(#linear-gradient-22);
      }

      .cls-8 {
        fill: url(#linear-gradient-10);
        stroke: url(#linear-gradient-11);
      }

      .cls-12 {
        opacity: .5;
      }

      .cls-13 {
        opacity: .8;
      }

      .cls-9 {
        stroke: url(#linear-gradient-25);
      }

      .cls-14 {
        fill: url(#linear-gradient-14);
      }

      .cls-15 {
        fill: url(#linear-gradient-18);
      }

      .cls-16 {
        fill: url(#linear-gradient-19);
      }

      .cls-17 {
        fill: url(#linear-gradient-16);
      }

      .cls-18 {
        fill: url(#linear-gradient-17);
      }

      .cls-19 {
        fill: url(#linear-gradient-13);
      }

      .cls-20 {
        isolation: isolate;
      }

      .cls-21 {
        fill: url(#linear-gradient-15);
      }

      .cls-21, .cls-22, .cls-23 {
        mix-blend-mode: multiply;
      }

      .cls-22 {
        fill: url(#linear-gradient-20);
      }

      .cls-23 {
        fill: url(#linear-gradient-12);
      }

      .cls-11 {
        fill: none;
        stroke: #ddd59b;
        stroke-width: .5px;
      }
    </style>
    <linearGradient id="linear-gradient" x1="53.96" y1="411.02" x2="90.04" y2="411.02" gradientUnits="userSpaceOnUse">
      <stop offset=".29" stop-color="#ddd59b"/>
      <stop offset=".46" stop-color="#c5bd83"/>
      <stop offset=".9" stop-color="#8c844b"/>
    </linearGradient>
    <linearGradient id="linear-gradient-2" x1="54.33" y1="224.35" x2="89.67" y2="224.35" gradientUnits="userSpaceOnUse">
      <stop offset=".14" stop-color="#ddd59b"/>
      <stop offset=".33" stop-color="#d8d096"/>
      <stop offset=".52" stop-color="#ccc48a"/>
      <stop offset=".72" stop-color="#b8b076"/>
      <stop offset=".91" stop-color="#9b935a"/>
      <stop offset="1" stop-color="#8c844b"/>
    </linearGradient>
    <linearGradient id="linear-gradient-3" x1="53.96" y1="224.35" x2="90.04" y2="224.35" gradientUnits="userSpaceOnUse">
      <stop offset=".3" stop-color="#ddd59b"/>
      <stop offset=".46" stop-color="#bdb57b"/>
      <stop offset=".63" stop-color="#a29a60"/>
      <stop offset=".78" stop-color="#918950"/>
      <stop offset=".9" stop-color="#8c844b"/>
    </linearGradient>
    <linearGradient id="linear-gradient-4" x1="62.36" y1="194.57" x2="81.63" y2="194.57" gradientUnits="userSpaceOnUse">
      <stop offset=".16" stop-color="#ddd59b"/>
      <stop offset=".35" stop-color="#d9d197"/>
      <stop offset=".54" stop-color="#cdc58b"/>
      <stop offset=".72" stop-color="#bab279"/>
      <stop offset=".89" stop-color="#9f975e"/>
      <stop offset="1" stop-color="#8c844b"/>
    </linearGradient>
    <linearGradient id="linear-gradient-5" x1="58.81" y1="198.45" x2="85.51" y2="188.73" gradientUnits="userSpaceOnUse">
      <stop offset=".3" stop-color="#ddd59b"/>
      <stop offset=".46" stop-color="#bdb57b"/>
      <stop offset=".63" stop-color="#a29a60"/>
      <stop offset=".78" stop-color="#918950"/>
      <stop offset=".9" stop-color="#8c844b"/>
    </linearGradient>
    <linearGradient id="linear-gradient-6" x1="62.36" y1="161.99" x2="81.63" y2="161.99" gradientUnits="userSpaceOnUse">
      <stop offset=".39" stop-color="#ddd59b"/>
      <stop offset=".51" stop-color="#d7cf95"/>
      <stop offset=".66" stop-color="#c6be84"/>
      <stop offset=".84" stop-color="#aba36a"/>
      <stop offset="1" stop-color="#8c844b"/>
    </linearGradient>
    <linearGradient id="linear-gradient-7" x1="57.66" y1="171.98" x2="82.4" y2="157.7" gradientUnits="userSpaceOnUse">
      <stop offset=".43" stop-color="#ddd59b"/>
      <stop offset=".53" stop-color="#d0c88e"/>
      <stop offset=".73" stop-color="#aea66c"/>
      <stop offset=".9" stop-color="#8c844b"/>
    </linearGradient>
    <linearGradient id="linear-gradient-8" x1="62.36" y1="174.16" x2="81.63" y2="174.16" xlink:href="#linear-gradient-6"/>
    <linearGradient id="linear-gradient-9" x1="62.12" y1="179.72" x2="80.68" y2="169.01" xlink:href="#linear-gradient-7"/>
    <linearGradient id="linear-gradient-10" x1="54.34" y1="233.05" x2="89.66" y2="233.05" xlink:href="#linear-gradient-2"/>
    <linearGradient id="linear-gradient-11" x1="58.51" y1="244.49" x2="84.91" y2="222.34" gradientUnits="userSpaceOnUse">
      <stop offset=".3" stop-color="#ddd59b"/>
      <stop offset=".46" stop-color="#bdb57b"/>
      <stop offset=".63" stop-color="#a29a60"/>
      <stop offset=".78" stop-color="#918950"/>
      <stop offset=".9" stop-color="#8c844b"/>
    </linearGradient>
    <linearGradient id="linear-gradient-12" x1="86.27" y1="543.41" x2="68.68" y2="584.23" gradientUnits="userSpaceOnUse">
      <stop offset=".1" stop-color="#ccc375" stop-opacity="0"/>
      <stop offset=".17" stop-color="#beb56c" stop-opacity=".21"/>
      <stop offset=".3" stop-color="#aca460" stop-opacity=".49"/>
      <stop offset=".42" stop-color="#9e9657" stop-opacity=".71"/>
      <stop offset=".53" stop-color="#948c50" stop-opacity=".87"/>
      <stop offset=".64" stop-color="#8e864c" stop-opacity=".97"/>
      <stop offset=".74" stop-color="#8c844b"/>
    </linearGradient>
    <linearGradient id="linear-gradient-13" x1="71.88" y1="404.98" x2="71.88" y2="510.18" gradientUnits="userSpaceOnUse">
      <stop offset="0" stop-color="#ddd59b"/>
      <stop offset=".16" stop-color="#c5bd83"/>
      <stop offset=".55" stop-color="#8c844b"/>
      <stop offset=".65" stop-color="#90884f"/>
      <stop offset=".75" stop-color="#9d955b"/>
      <stop offset=".85" stop-color="#b2aa71"/>
      <stop offset=".96" stop-color="#d0c88e"/>
      <stop offset="1" stop-color="#ddd59b"/>
    </linearGradient>
    <linearGradient id="linear-gradient-14" x1="69.49" y1="384.16" x2="74.27" y2="384.16" gradientUnits="userSpaceOnUse">
      <stop offset="0" stop-color="#fff"/>
      <stop offset=".29" stop-color="#ddd59b"/>
      <stop offset=".46" stop-color="#c5bd83"/>
      <stop offset=".9" stop-color="#8c844b"/>
    </linearGradient>
    <linearGradient id="linear-gradient-15" x1="83.28" y1="384.16" x2="74.52" y2="384.16" gradientUnits="userSpaceOnUse">
      <stop offset=".29" stop-color="#ddd59b" stop-opacity="0"/>
      <stop offset=".3" stop-color="#ded69f" stop-opacity=".03"/>
      <stop offset=".64" stop-color="#fff" stop-opacity=".65"/>
      <stop offset=".73" stop-color="#d4d1bc" stop-opacity=".78"/>
      <stop offset=".9" stop-color="#8c844b"/>
    </linearGradient>
    <linearGradient id="linear-gradient-16" x1="72.11" y1="578.33" x2="72.11" y2="587.28" gradientTransform="translate(144 1094.65) rotate(-180)" gradientUnits="userSpaceOnUse">
      <stop offset=".11" stop-color="#fff"/>
      <stop offset=".18" stop-color="#f5f4ef" stop-opacity=".96"/>
      <stop offset=".48" stop-color="#c8c4a9" stop-opacity=".76"/>
      <stop offset=".73" stop-color="#a7a176" stop-opacity=".62"/>
      <stop offset=".91" stop-color="#938c57" stop-opacity=".53"/>
      <stop offset="1" stop-color="#8c844b" stop-opacity=".5"/>
    </linearGradient>
    <linearGradient id="linear-gradient-17" x1="71.88" y1="814.78" x2="71.88" y2="824.44" gradientTransform="translate(0 -562.82)" gradientUnits="userSpaceOnUse">
      <stop offset=".4" stop-color="#fff"/>
      <stop offset=".61" stop-color="#d5d2bd"/>
      <stop offset=".88" stop-color="#a09a6b"/>
      <stop offset="1" stop-color="#8c844b"/>
    </linearGradient>
    <linearGradient id="linear-gradient-18" x1="83.43" y1="550.65" x2="91.37" y2="541.06" gradientUnits="userSpaceOnUse">
      <stop offset=".47" stop-color="#7f7641"/>
      <stop offset=".55" stop-color="#827843" stop-opacity=".95"/>
      <stop offset=".65" stop-color="#8d8148" stop-opacity=".82"/>
      <stop offset=".77" stop-color="#9f8f52" stop-opacity=".59"/>
      <stop offset=".9" stop-color="#b7a25f" stop-opacity=".28"/>
      <stop offset="1" stop-color="#ceb46b" stop-opacity="0"/>
    </linearGradient>
    <linearGradient id="linear-gradient-19" x1="-213.06" y1="550.65" x2="-205.13" y2="541.06" gradientTransform="translate(265.14 1091.03) scale(1 -1)" gradientUnits="userSpaceOnUse">
      <stop offset=".49" stop-color="#7f7641"/>
      <stop offset=".56" stop-color="#827843" stop-opacity=".95"/>
      <stop offset=".66" stop-color="#8d8148" stop-opacity=".82"/>
      <stop offset=".78" stop-color="#9f8f52" stop-opacity=".59"/>
      <stop offset=".9" stop-color="#b7a25f" stop-opacity=".28"/>
      <stop offset="1" stop-color="#ceb46b" stop-opacity="0"/>
    </linearGradient>
    <linearGradient id="linear-gradient-20" x1="53.96" y1="365.43" x2="90.04" y2="365.43" gradientUnits="userSpaceOnUse">
      <stop offset="0" stop-color="#dbd399"/>
      <stop offset=".09" stop-color="#e3ddb0"/>
      <stop offset=".27" stop-color="#f8f7ec"/>
      <stop offset=".32" stop-color="#fff"/>
      <stop offset=".38" stop-color="#eeebcf"/>
      <stop offset=".44" stop-color="#ddd59b"/>
      <stop offset=".51" stop-color="#d3cb91"/>
      <stop offset=".63" stop-color="#bbb379"/>
      <stop offset=".78" stop-color="#938b51"/>
      <stop offset=".8" stop-color="#8c844b"/>
    </linearGradient>
    <linearGradient id="linear-gradient-21" x1="43.63" y1="565.7" x2="60.44" y2="565.7" gradientUnits="userSpaceOnUse">
      <stop offset=".29" stop-color="#ccc375"/>
      <stop offset=".43" stop-color="#c0b76d"/>
      <stop offset=".68" stop-color="#a09858"/>
      <stop offset=".82" stop-color="#8c844b"/>
    </linearGradient>
    <linearGradient id="linear-gradient-22" x1="43.28" y1="565" x2="58.69" y2="565" gradientUnits="userSpaceOnUse">
      <stop offset="0" stop-color="#ccc375"/>
      <stop offset=".07" stop-color="#d1c881"/>
      <stop offset=".21" stop-color="#d9d194"/>
      <stop offset=".3" stop-color="#ddd59b"/>
      <stop offset=".55" stop-color="#beb67c"/>
      <stop offset=".9" stop-color="#8c844b"/>
    </linearGradient>
    <linearGradient id="linear-gradient-23" x1="85.69" y1="565.7" x2="100.34" y2="565.7" gradientUnits="userSpaceOnUse">
      <stop offset="0" stop-color="#8c844b"/>
      <stop offset=".9" stop-color="#c5bc70"/>
      <stop offset="1" stop-color="#ccc375"/>
    </linearGradient>
    <linearGradient id="linear-gradient-24" x1="100.56" y1="564.87" x2="84.86" y2="565.15" gradientUnits="userSpaceOnUse">
      <stop offset=".3" stop-color="#ddd59b"/>
      <stop offset=".46" stop-color="#bdb57b"/>
      <stop offset=".62" stop-color="#a29a60"/>
      <stop offset=".76" stop-color="#918950"/>
      <stop offset=".87" stop-color="#8c844b"/>
      <stop offset="1" stop-color="#494620"/>
    </linearGradient>
    <linearGradient id="linear-gradient-25" x1="69.61" y1="565.66" x2="74.38" y2="565.66" gradientUnits="userSpaceOnUse">
      <stop offset="0" stop-color="#ccc375"/>
      <stop offset=".12" stop-color="#d1c880"/>
      <stop offset=".3" stop-color="#ddd59b"/>
      <stop offset=".36" stop-color="#cec68d"/>
      <stop offset=".52" stop-color="#a9a16c"/>
      <stop offset=".67" stop-color="#8e8653"/>
      <stop offset=".8" stop-color="#7d7645"/>
      <stop offset=".9" stop-color="#787140"/>
    </linearGradient>
  </defs>
  <g class="cls-20">
    <g id="Layer_1_copy" data-name="Layer 1 copy">
      <path class="cls-1" d="M75.78,583.41h-7.56c-7.67,0-13.89-7.61-13.89-16.99V238.63c0,4.3,35.33,4.3,35.33,0v327.8c0,9.38-6.22,16.99-13.89,16.99Z"/>
      <path class="cls-4" d="M89.67,238.63c0,4.3-35.33,4.3-35.33,0l8.04-31.76c0,4.16,19.26,4.16,19.26,0l8.04,31.76Z"/>
      <path class="cls-2" d="M81.63,206.86c0,4.16-19.27,4.16-19.27,0v-27.7c0,3.2,19.27,3.2,19.27,0v27.7Z"/>
      <path class="cls-5" d="M81.63,179.16c0,3.2-19.27,3.2-19.27,0l7.49-34.59c.46-2.88,3.83-2.88,4.29,0l7.49,34.59Z"/>
      <path class="cls-3" d="M62.36,179.16c0,3.19,19.27,3.19,19.27,0l-2.69-12.4c-3.67,.91-10.23,.91-13.9,0l-2.69,12.4"/>
      <path class="cls-8" d="M89.66,238.62c0,4.31-35.33,4.31-35.33,0l3.63-14.37c3.34,4.31,24.84,5.21,28.06,0l3.63,14.37Z"/>
      <path class="cls-23" d="M75.78,583.82h-3.53c-.21,0-.37-.18-.37-.4v-42.58c0-.22,.17-.4,.37-.4h17.41c.21,0,.37,.18,.37,.4v25.59c0,9.59-6.39,17.39-14.25,17.39Z"/>
      <g>
        <line class="cls-11" x1="53.96" y1="562.13" x2="90.03" y2="562.13"/>
        <line class="cls-11" x1="53.96" y1="556.42" x2="90.03" y2="556.42"/>
      </g>
      <g>
        <line class="cls-11" x1="53.96" y1="532.12" x2="90.03" y2="532.12"/>
        <line class="cls-11" x1="53.96" y1="526.42" x2="90.03" y2="526.42"/>
      </g>
      <g>
        <line class="cls-11" x1="53.96" y1="502.11" x2="90.03" y2="502.11"/>
        <line class="cls-11" x1="53.96" y1="496.41" x2="90.03" y2="496.41"/>
      </g>
      <g>
        <line class="cls-11" x1="53.96" y1="472.1" x2="90.03" y2="472.1"/>
        <line class="cls-11" x1="53.96" y1="466.4" x2="90.03" y2="466.4"/>
      </g>
      <g>
        <line class="cls-11" x1="53.96" y1="442.1" x2="90.03" y2="442.1"/>
        <line class="cls-11" x1="53.96" y1="436.39" x2="90.03" y2="436.39"/>
      </g>
      <g>
        <line class="cls-11" x1="53.96" y1="412.09" x2="90.03" y2="412.09"/>
        <line class="cls-11" x1="53.96" y1="406.38" x2="90.03" y2="406.38"/>
      </g>
      <g>
        <line class="cls-11" x1="53.96" y1="382.08" x2="90.03" y2="382.08"/>
        <line class="cls-11" x1="53.96" y1="376.38" x2="90.03" y2="376.38"/>
      </g>
      <g>
        <line class="cls-11" x1="53.96" y1="352.07" x2="90.03" y2="352.07"/>
        <line class="cls-11" x1="53.96" y1="346.37" x2="90.03" y2="346.37"/>
      </g>
      <g>
        <line class="cls-11" x1="53.96" y1="322.06" x2="90.03" y2="322.06"/>
        <line class="cls-11" x1="53.96" y1="316.36" x2="90.03" y2="316.36"/>
      </g>
      <g>
        <line class="cls-11" x1="53.96" y1="292.06" x2="90.03" y2="292.06"/>
        <line class="cls-11" x1="53.96" y1="286.35" x2="90.03" y2="286.35"/>
      </g>
      <g>
        <line class="cls-11" x1="53.96" y1="262.05" x2="90.03" y2="262.05"/>
        <line class="cls-11" x1="53.96" y1="256.35" x2="90.03" y2="256.35"/>
      </g>
      <g>
        <rect class="cls-19" x="69.49" y="252.33" width="4.79" height="263.66"/>
        <path class="cls-14" d="M73.77,252.83v262.66h-3.79V252.83h3.79m.5-.5h-4.79v263.66h4.79V252.33h0Z"/>
      </g>
      <rect class="cls-21" x="74.27" y="252.33" width="10.88" height="263.66"/>
      <g class="cls-13">
        <rect class="cls-17" x="69.49" y="505.46" width="4.79" height="10.53"/>
      </g>
      <g class="cls-12">
        <rect class="cls-18" x="69.49" y="252.33" width="4.79" height="11.36"/>
      </g>
      <rect class="cls-15" x="85.31" y="536.53" width="4.72" height="17.98"/>
      <rect class="cls-16" x="53.96" y="536.53" width="4.72" height="17.98" transform="translate(112.65 1091.03) rotate(-180)"/>
    </g>
    <g id="Layer_5" data-name="Layer 5">
      <path class="cls-22" d="M90.04,238.62v327.81c0,9.59-6.39,17.39-14.26,17.39h-7.56c-7.86,0-14.26-7.8-14.26-17.39V238.62s.01-.07,.02-.1l8.01-31.67v-27.69c0-.06,.01-.11,.04-.17l6.91-31.95h6.12l6.94,32.03s.01,.06,.01,.09v27.65l8.02,31.71s.01,.07,.01,.1Z"/>
      <polygon class="cls-7" points="58.31 540.91 43.66 573.95 43.66 590.49 58.31 590.49 58.31 540.91"/>
      <polygon class="cls-6" points="85.69 540.91 100.34 573.95 100.34 590.49 85.69 590.49 85.69 540.91"/>
      <rect class="cls-9" x="69.99" y="540.83" width="4.01" height="49.66"/>
      <path class="cls-10" d="M75.06,147.04h-6.12l.55-2.56c.27-1.7,1.46-2.47,2.51-2.47s2.24,.77,2.51,2.5l.55,2.53Z"/>
    </g>
  </g>
</svg>