<?xml version="1.0" encoding="UTF-8"?>
<svg xmlns="http://www.w3.org/2000/svg" xmlns:xlink="http://www.w3.org/1999/xlink" viewBox="0 0 144 614.57">
  <defs>
    <style>
      .cls-1, .cls-2, .cls-3, .cls-4, .cls-5 {
        fill: none;
      }

      .cls-2, .cls-6, .cls-7, .cls-8, .cls-9, .cls-10, .cls-11, .cls-12, .cls-3, .cls-13, .cls-4, .cls-14 {
        stroke-linecap: round;
      }

      .cls-2, .cls-6, .cls-7, .cls-8, .cls-9, .cls-15, .cls-12, .cls-3, .cls-13, .cls-4, .cls-16, .cls-14 {
        stroke-linejoin: round;
      }

      .cls-2, .cls-12, .cls-3, .cls-4, .cls-5 {
        stroke: #a08d9a;
      }

      .cls-6 {
        fill: #592b36;
        stroke: url(#linear-gradient);
      }

      .cls-6, .cls-7, .cls-8, .cls-9, .cls-10, .cls-11, .cls-15, .cls-13, .cls-14 {
        stroke-width: .75px;
      }

      .cls-17 {
        clip-path: url(#clippath);
      }

      .cls-7 {
        fill: url(#linear-gradient-4);
        stroke: url(#linear-gradient-5);
      }

      .cls-8 {
        fill: url(#linear-gradient-8);
        stroke: url(#linear-gradient-9);
      }

      .cls-9 {
        fill: url(#linear-gradient-6);
        stroke: url(#linear-gradient-7);
      }

      .cls-10 {
        fill: url(#linear-gradient-20);
        stroke: url(#linear-gradient-21);
      }

      .cls-10, .cls-11, .cls-5 {
        stroke-miterlimit: 10;
      }

      .cls-11 {
        fill: url(#linear-gradient-22);
        stroke: url(#linear-gradient-23);
      }

      .cls-15 {
        stroke: #e8e2e5;
      }

      .cls-15, .cls-12, .cls-14 {
        fill: #e8e2e5;
      }

      .cls-12 {
        stroke-width: .5px;
      }

      .cls-3 {
        stroke-dasharray: 0 0 0 0 .49 5.85 .49 5.85;
      }

      .cls-18 {
        opacity: .5;
      }

      .cls-19 {
        opacity: .8;
      }

      .cls-13 {
        fill: #6d414b;
        stroke: url(#linear-gradient-2);
      }

      .cls-20 {
        fill: url(#linear-gradient-16);
      }

      .cls-21 {
        fill: url(#linear-gradient-17);
      }

      .cls-22 {
        fill: url(#linear-gradient-13);
      }

      .cls-23 {
        fill: url(#linear-gradient-12);
      }

      .cls-24 {
        fill: url(#linear-gradient-10);
      }

      .cls-25 {
        fill: url(#linear-gradient-11);
      }

      .cls-26 {
        isolation: isolate;
      }

      .cls-4 {
        stroke-dasharray: 0 0 0 0 0 0 .49 5.85 .49 5.85 .49 5.85;
      }

      .cls-27 {
        fill: url(#linear-gradient-19);
      }

      .cls-27, .cls-28, .cls-29, .cls-30 {
        mix-blend-mode: multiply;
      }

      .cls-28 {
        fill: url(#linear-gradient-15);
      }

      .cls-29 {
        fill: url(#linear-gradient-14);
      }

      .cls-30 {
        fill: url(#linear-gradient-18);
      }

      .cls-16 {
        fill: #ebedd6;
        stroke: #fff;
      }

      .cls-5 {
        stroke-width: .25px;
      }

      .cls-14 {
        stroke: url(#linear-gradient-3);
      }
    </style>
    <linearGradient id="linear-gradient" x1="84.5" y1="224.75" x2="95.58" y2="228.78" gradientUnits="userSpaceOnUse">
      <stop offset=".07" stop-color="#6d414b"/>
      <stop offset=".39" stop-color="#693641"/>
      <stop offset=".75" stop-color="#68313c"/>
    </linearGradient>
    <linearGradient id="linear-gradient-2" x1="57.37" y1="224.96" x2="64.81" y2="229.25" gradientUnits="userSpaceOnUse">
      <stop offset=".31" stop-color="#e8e2e5"/>
      <stop offset=".52" stop-color="#b69ca3"/>
      <stop offset=".78" stop-color="#7e4f59"/>
      <stop offset=".9" stop-color="#68313c"/>
    </linearGradient>
    <linearGradient id="linear-gradient-3" x1="55.89" y1="421.75" x2="93.34" y2="421.75" gradientUnits="userSpaceOnUse">
      <stop offset="0" stop-color="#fff"/>
      <stop offset=".9" stop-color="#a08d9a"/>
    </linearGradient>
    <linearGradient id="linear-gradient-4" x1="56.26" y1="252.61" x2="92.97" y2="252.61" gradientUnits="userSpaceOnUse">
      <stop offset=".28" stop-color="#e8e2e5"/>
      <stop offset=".51" stop-color="#e5dfe2"/>
      <stop offset=".65" stop-color="#ded7db"/>
      <stop offset=".77" stop-color="#d2c8ce"/>
      <stop offset=".87" stop-color="#c1b4bc"/>
      <stop offset=".96" stop-color="#ab9aa6"/>
      <stop offset="1" stop-color="#a08d9a"/>
    </linearGradient>
    <linearGradient id="linear-gradient-5" x1="55.89" y1="252.61" x2="93.34" y2="252.61" gradientUnits="userSpaceOnUse">
      <stop offset="0" stop-color="#fff"/>
      <stop offset=".9" stop-color="#a08d9a"/>
    </linearGradient>
    <linearGradient id="linear-gradient-6" x1="61.85" y1="219.51" x2="87.37" y2="219.51" gradientUnits="userSpaceOnUse">
      <stop offset="0" stop-color="#6d414b"/>
      <stop offset=".05" stop-color="#704650"/>
      <stop offset=".12" stop-color="#7a545f"/>
      <stop offset=".19" stop-color="#8a6c78"/>
      <stop offset=".27" stop-color="#a08d9a"/>
      <stop offset=".27" stop-color="#9f8c99"/>
      <stop offset=".39" stop-color="#8b6b77"/>
      <stop offset=".51" stop-color="#7c515d"/>
      <stop offset=".63" stop-color="#703f4a"/>
      <stop offset=".76" stop-color="#6a343f"/>
      <stop offset=".9" stop-color="#68313c"/>
    </linearGradient>
    <linearGradient id="linear-gradient-7" x1="56.39" y1="234.8" x2="92.83" y2="204.23" gradientUnits="userSpaceOnUse">
      <stop offset="0" stop-color="#e8e2e5"/>
      <stop offset=".31" stop-color="#a08d9a"/>
      <stop offset=".33" stop-color="#9b8592"/>
      <stop offset=".5" stop-color="#85616d"/>
      <stop offset=".66" stop-color="#754652"/>
      <stop offset=".79" stop-color="#6b3641"/>
      <stop offset=".9" stop-color="#68313c"/>
    </linearGradient>
    <linearGradient id="linear-gradient-8" x1="61.85" y1="175.14" x2="87.37" y2="175.14" gradientUnits="userSpaceOnUse">
      <stop offset="0" stop-color="#6d414b"/>
      <stop offset=".27" stop-color="#a08d9a"/>
      <stop offset=".38" stop-color="#8e6f7b"/>
      <stop offset=".53" stop-color="#794d59"/>
      <stop offset=".65" stop-color="#6c3843"/>
      <stop offset=".73" stop-color="#68313c"/>
    </linearGradient>
    <linearGradient id="linear-gradient-9" x1="58.09" y1="179.16" x2="83.58" y2="174.67" gradientUnits="userSpaceOnUse">
      <stop offset=".31" stop-color="#a08d9a"/>
      <stop offset=".33" stop-color="#9b8592"/>
      <stop offset=".5" stop-color="#85616d"/>
      <stop offset=".66" stop-color="#754652"/>
      <stop offset=".79" stop-color="#6b3641"/>
      <stop offset=".9" stop-color="#68313c"/>
    </linearGradient>
    <linearGradient id="linear-gradient-10" x1="74.61" y1="411.92" x2="74.61" y2="538.53" gradientUnits="userSpaceOnUse">
      <stop offset="0" stop-color="#e8e2e5"/>
      <stop offset=".09" stop-color="#d5ccd1"/>
      <stop offset=".23" stop-color="#beb0b9"/>
      <stop offset=".38" stop-color="#ad9ca7"/>
      <stop offset=".52" stop-color="#a3909d"/>
      <stop offset=".67" stop-color="#a08d9a"/>
      <stop offset=".83" stop-color="#a18e9b"/>
      <stop offset=".89" stop-color="#a795a1"/>
      <stop offset=".93" stop-color="#b1a1ab"/>
      <stop offset=".96" stop-color="#c0b2ba"/>
      <stop offset=".99" stop-color="#d3c8cc"/>
      <stop offset="1" stop-color="#d8cdd1"/>
    </linearGradient>
    <linearGradient id="linear-gradient-11" x1="72.4" y1="407.46" x2="76.81" y2="407.46" gradientUnits="userSpaceOnUse">
      <stop offset="0" stop-color="#fff"/>
      <stop offset=".29" stop-color="#a08d9a"/>
      <stop offset=".45" stop-color="#917784"/>
      <stop offset=".9" stop-color="#6d414b"/>
    </linearGradient>
    <linearGradient id="linear-gradient-12" x1="397.38" y1="551.37" x2="397.38" y2="559.82" gradientTransform="translate(472 1094.65) rotate(-180)" gradientUnits="userSpaceOnUse">
      <stop offset=".11" stop-color="#fff"/>
      <stop offset=".19" stop-color="#efeaeb" stop-opacity=".95"/>
      <stop offset=".49" stop-color="#b8a2a7" stop-opacity=".76"/>
      <stop offset=".73" stop-color="#8f6e75" stop-opacity=".62"/>
      <stop offset=".91" stop-color="#764d56" stop-opacity=".53"/>
      <stop offset="1" stop-color="#6d414b" stop-opacity=".5"/>
    </linearGradient>
    <linearGradient id="linear-gradient-13" x1="74.61" y1="834.45" x2="74.61" y2="843.03" gradientTransform="translate(-.01 -562.82)" gradientUnits="userSpaceOnUse">
      <stop offset=".4" stop-color="#fff"/>
      <stop offset=".47" stop-color="#f3f1f3"/>
      <stop offset=".83" stop-color="#b7a9b3"/>
      <stop offset="1" stop-color="#a08d9a"/>
    </linearGradient>
    <linearGradient id="linear-gradient-14" x1="76.81" y1="407.46" x2="90.39" y2="407.46" gradientUnits="userSpaceOnUse">
      <stop offset="0" stop-color="#6d414b"/>
      <stop offset=".27" stop-color="#ad959b" stop-opacity=".48"/>
      <stop offset=".5" stop-color="#e8e2e5" stop-opacity="0"/>
    </linearGradient>
    <linearGradient id="linear-gradient-15" x1="105.98" y1="562.45" x2="65.46" y2="560.33" gradientTransform="translate(166.09 1122.51) rotate(-180)" gradientUnits="userSpaceOnUse">
      <stop offset="0" stop-color="#6d414b"/>
      <stop offset=".3" stop-color="#ad959b" stop-opacity=".48"/>
      <stop offset=".55" stop-color="#e8e2e5" stop-opacity="0"/>
    </linearGradient>
    <clipPath id="clippath">
      <path class="cls-1" d="M87.7,198.21l-10.52-44.26c-.29-1.62-1.49-2.35-2.57-2.35s-2.28,.73-2.56,2.33l-10.53,44.28c-.03,.11,0,.24,.06,.33,.06,.09,.17,.15,.27,.15h25.52c.11,0,.21-.06,.27-.15,.07-.09,.09-.22,.06-.33Z"/>
    </clipPath>
    <linearGradient id="linear-gradient-16" x1="87.13" y1="551.08" x2="94.6" y2="542.05" gradientUnits="userSpaceOnUse">
      <stop offset=".47" stop-color="#68313c"/>
      <stop offset=".56" stop-color="#6f3b45" stop-opacity=".94"/>
      <stop offset=".68" stop-color="#845862" stop-opacity=".78"/>
      <stop offset=".81" stop-color="#a78990" stop-opacity=".5"/>
      <stop offset=".96" stop-color="#d8cbcf" stop-opacity=".12"/>
      <stop offset="1" stop-color="#e8e2e5" stop-opacity="0"/>
    </linearGradient>
    <linearGradient id="linear-gradient-17" x1="445.95" y1="551.08" x2="453.41" y2="542.05" gradientTransform="translate(-391.85 1092.5) scale(1 -1)" xlink:href="#linear-gradient-16"/>
    <linearGradient id="linear-gradient-18" x1="55.92" y1="411.39" x2="93.31" y2="411.39" gradientUnits="userSpaceOnUse">
      <stop offset=".11" stop-color="#e8e2e5"/>
      <stop offset=".22" stop-color="#f3f0f1"/>
      <stop offset=".31" stop-color="#fff"/>
      <stop offset=".46" stop-color="#d8d0d5"/>
      <stop offset=".63" stop-color="#af9faa"/>
      <stop offset=".72" stop-color="#a08d9a"/>
      <stop offset="1" stop-color="#6d414b"/>
    </linearGradient>
    <linearGradient id="linear-gradient-19" x1="64.34" y1="541.22" x2="96.52" y2="589.34" gradientUnits="userSpaceOnUse">
      <stop offset=".2" stop-color="#e8e2e5" stop-opacity="0"/>
      <stop offset=".27" stop-color="#dcd4d9" stop-opacity=".16"/>
      <stop offset=".42" stop-color="#c7bbc2" stop-opacity=".46"/>
      <stop offset=".56" stop-color="#b6a7b1" stop-opacity=".69"/>
      <stop offset=".69" stop-color="#a998a4" stop-opacity=".86"/>
      <stop offset=".81" stop-color="#a2909c" stop-opacity=".96"/>
      <stop offset=".9" stop-color="#a08d9a"/>
    </linearGradient>
    <linearGradient id="linear-gradient-20" x1="44.7" y1="566.23" x2="59.93" y2="566.23" gradientUnits="userSpaceOnUse">
      <stop offset="0" stop-color="#e8e2e5"/>
      <stop offset=".18" stop-color="#dcd4d9"/>
      <stop offset=".51" stop-color="#beb1ba"/>
      <stop offset=".81" stop-color="#a08d9a"/>
    </linearGradient>
    <linearGradient id="linear-gradient-21" x1="47.64" y1="563.91" x2="67.51" y2="571.14" gradientUnits="userSpaceOnUse">
      <stop offset="0" stop-color="#e8e2e5"/>
      <stop offset=".9" stop-color="#a08d9a"/>
    </linearGradient>
    <linearGradient id="linear-gradient-22" x1="89.3" y1="566.23" x2="104.53" y2="566.23" gradientUnits="userSpaceOnUse">
      <stop offset="0" stop-color="#6d414b"/>
      <stop offset="1" stop-color="#847480"/>
    </linearGradient>
    <linearGradient id="linear-gradient-23" x1="81.72" y1="571.14" x2="101.59" y2="563.91" gradientUnits="userSpaceOnUse">
      <stop offset="0" stop-color="#a08d9a"/>
      <stop offset=".04" stop-color="#937986"/>
      <stop offset=".11" stop-color="#856470"/>
      <stop offset=".18" stop-color="#7a545f"/>
      <stop offset=".27" stop-color="#724953"/>
      <stop offset=".4" stop-color="#6e424c"/>
      <stop offset=".77" stop-color="#6d414b"/>
      <stop offset=".8" stop-color="#7b535d"/>
      <stop offset=".87" stop-color="#a0848c"/>
      <stop offset=".96" stop-color="#dbd2d7"/>
      <stop offset=".97" stop-color="#ddd5da"/>
    </linearGradient>
  </defs>
  <g class="cls-26">
    <g id="Layer_1_copy" data-name="Layer 1 copy">
      <polygon class="cls-6" points="93.42 233.63 87.37 233.63 87.37 217.96 93.42 233.63"/>
      <polygon class="cls-13" points="55.8 233.63 61.85 233.63 61.85 217.96 55.8 233.63"/>
      <path class="cls-14" d="M92.97,574.34c0,4.26-3.1,7.71-6.93,7.71h-22.84c-3.83,0-6.93-3.45-6.93-7.71V261.45c0,4.06,36.7,4.06,36.7,0v312.89Z"/>
      <path class="cls-7" d="M92.97,261.45c0,4.06-36.7,4.06-36.7,0l5.6-20.72h25.51l5.6,20.72Z"/>
      <rect class="cls-9" x="61.85" y="198.3" width="25.52" height="42.42"/>
      <path class="cls-8" d="M87.37,198.3h-25.52l10.53-44.28c.48-2.72,3.98-2.72,4.46,0l10.53,44.28Z"/>
      <line class="cls-15" x1="61.49" y1="212.14" x2="87.72" y2="212.14"/>
      <line class="cls-5" x1="55.92" y1="567.7" x2="93.31" y2="567.7"/>
      <line class="cls-5" x1="55.92" y1="530.14" x2="93.31" y2="530.14"/>
      <line class="cls-5" x1="55.92" y1="502.14" x2="93.31" y2="502.14"/>
      <line class="cls-5" x1="55.92" y1="474.15" x2="93.31" y2="474.15"/>
      <line class="cls-5" x1="55.92" y1="446.15" x2="93.31" y2="446.15"/>
      <line class="cls-5" x1="55.92" y1="418.15" x2="93.31" y2="418.15"/>
      <line class="cls-5" x1="55.92" y1="390.15" x2="93.31" y2="390.15"/>
      <line class="cls-5" x1="55.92" y1="362.16" x2="93.31" y2="362.16"/>
      <line class="cls-5" x1="55.92" y1="334.16" x2="93.31" y2="334.16"/>
      <line class="cls-5" x1="55.92" y1="306.16" x2="93.31" y2="306.16"/>
      <line class="cls-5" x1="55.92" y1="278.16" x2="93.31" y2="278.16"/>
      <g>
        <rect class="cls-24" x="72.4" y="271.96" width="4.41" height="271"/>
        <path class="cls-25" d="M76.06,272.71v269.5h-2.91V272.71h2.91m.75-.75h-4.41v271h4.41V271.96h0Z"/>
      </g>
      <g class="cls-19">
        <rect class="cls-23" x="72.4" y="533.02" width="4.41" height="9.95"/>
      </g>
      <g class="cls-18">
        <rect class="cls-22" x="72.4" y="271.96" width="4.41" height="10.09"/>
      </g>
      <rect class="cls-29" x="76.81" y="271.96" width="13.58" height="271"/>
      <rect class="cls-28" x="76.81" y="540.46" width="12.48" height="41.6" transform="translate(166.11 1122.51) rotate(180)"/>
      <g class="cls-17">
        <line class="cls-15" x1="79.82" y1="188.71" x2="85.88" y2="188.71"/>
      </g>
      <rect class="cls-12" x="64.11" y="562.94" width="21" height="11.6" rx="3.02" ry="3.02"/>
      <rect class="cls-20" x="88.95" y="537.76" width="4.36" height="16.98"/>
      <rect class="cls-21" x="55.91" y="537.76" width="4.36" height="16.98" transform="translate(116.19 1092.5) rotate(-180)"/>
    </g>
    <g id="Layer_5" data-name="Layer 5">
      <path class="cls-30" d="M93.28,261.29s0,0,0,0l-5.6-20.72c-.05-.14-.18-.23-.31-.23h-25.51c-.14,0-.26,.09-.31,.23l-5.6,20.72s0,0,0,0c-.02,.05-.03,.1-.03,.15v312.89c0,4.46,3.27,8.1,7.28,8.1h22.84c4.01,0,7.28-3.63,7.28-8.1V261.45c0-.05-.01-.11-.03-.15Z"/>
      <path class="cls-27" d="M93.31,536.15v38.19c0,4.47-3.26,8.1-7.28,8.1h-22.84c-4.01,0-7.28-3.63-7.28-8.1v-38.19h37.39Z"/>
      <polygon class="cls-10" points="59.93 541.9 44.7 573.11 44.7 590.57 59.93 590.57 59.93 541.9"/>
      <polygon class="cls-11" points="89.3 541.9 104.53 573.11 104.53 590.57 89.3 590.57 89.3 541.9"/>
    </g>
    <g id="Small_Details" data-name="Small Details">
      <g>
        <line class="cls-2" x1="89.3" y1="271.23" x2="89.3" y2="271.48"/>
        <line class="cls-3" x1="89.3" y1="277.33" x2="89.3" y2="287.09"/>
        <line class="cls-4" x1="89.3" y1="290.01" x2="89.3" y2="534.35"/>
        <line class="cls-2" x1="89.3" y1="537.28" x2="89.3" y2="537.53"/>
      </g>
      <g>
        <line class="cls-16" x1="58.97" y1="274" x2="69.69" y2="274"/>
        <line class="cls-16" x1="58.97" y1="269.92" x2="69.69" y2="269.92"/>
      </g>
      <g>
        <line class="cls-16" x1="58.97" y1="316.26" x2="69.69" y2="316.26"/>
        <line class="cls-16" x1="58.97" y1="312.18" x2="69.69" y2="312.18"/>
      </g>
      <g>
        <line class="cls-16" x1="58.97" y1="358.52" x2="69.69" y2="358.52"/>
        <line class="cls-16" x1="58.97" y1="354.44" x2="69.69" y2="354.44"/>
      </g>
      <g>
        <line class="cls-16" x1="58.97" y1="400.78" x2="69.69" y2="400.78"/>
        <line class="cls-16" x1="58.97" y1="396.7" x2="69.69" y2="396.7"/>
      </g>
      <g>
        <line class="cls-16" x1="58.97" y1="443.04" x2="69.69" y2="443.04"/>
        <line class="cls-16" x1="58.97" y1="438.96" x2="69.69" y2="438.96"/>
      </g>
      <g>
        <line class="cls-16" x1="58.97" y1="485.3" x2="69.69" y2="485.3"/>
        <line class="cls-16" x1="58.97" y1="481.22" x2="69.69" y2="481.22"/>
      </g>
      <g>
        <line class="cls-16" x1="58.97" y1="527.56" x2="69.69" y2="527.56"/>
        <line class="cls-16" x1="58.97" y1="523.48" x2="69.69" y2="523.48"/>
      </g>
    </g>
  </g>
</svg>