<?xml version="1.0" encoding="UTF-8"?>
<svg xmlns="http://www.w3.org/2000/svg" xmlns:xlink="http://www.w3.org/1999/xlink" viewBox="0 0 144 614.57">
  <defs>
    <style>
      .cls-1 {
        stroke: #000;
      }

      .cls-1, .cls-2, .cls-3, .cls-4, .cls-5, .cls-6, .cls-7, .cls-8 {
        stroke-width: .75px;
      }

      .cls-1, .cls-8 {
        stroke-miterlimit: 10;
      }

      .cls-9 {
        fill: url(#linear-gradient);
      }

      .cls-2 {
        fill: url(#linear-gradient-5);
        stroke: url(#linear-gradient-6);
      }

      .cls-2, .cls-3, .cls-4, .cls-5, .cls-6, .cls-7, .cls-10, .cls-11 {
        stroke-linejoin: round;
      }

      .cls-2, .cls-5, .cls-6, .cls-7 {
        stroke-linecap: round;
      }

      .cls-12 {
        fill: url(#linear-gradient-8);
      }

      .cls-12, .cls-13 {
        mix-blend-mode: multiply;
      }

      .cls-3, .cls-4, .cls-10, .cls-11 {
        fill: #ebedd6;
      }

      .cls-3, .cls-11 {
        stroke: #eae0ad;
      }

      .cls-4, .cls-10 {
        stroke: #7f7641;
      }

      .cls-14 {
        fill: url(#New_Gradient_Swatch_copy_3);
      }

      .cls-15 {
        fill: url(#linear-gradient-9);
      }

      .cls-16 {
        fill: url(#linear-gradient-7);
      }

      .cls-5 {
        fill: #ceb46b;
        stroke: url(#linear-gradient-2);
      }

      .cls-17 {
        fill: url(#linear-gradient-10);
      }

      .cls-6 {
        fill: url(#New_Gradient_Swatch_copy_6);
        stroke: url(#linear-gradient-3);
      }

      .cls-7 {
        fill: url(#New_Gradient_Swatch_copy_7);
        stroke: url(#linear-gradient-4);
      }

      .cls-18 {
        isolation: isolate;
      }

      .cls-13 {
        fill: url(#linear-gradient-11);
      }

      .cls-8 {
        fill: #606057;
        stroke: #606057;
      }
    </style>
    <linearGradient id="linear-gradient" x1="62.69" y1="590.93" x2="62.69" y2="579.85" gradientUnits="userSpaceOnUse">
      <stop offset="0" stop-color="#eae0ad"/>
      <stop offset=".3" stop-color="#d1c56b"/>
      <stop offset=".66" stop-color="#9d9350"/>
      <stop offset=".9" stop-color="#7f7641"/>
    </linearGradient>
    <linearGradient id="New_Gradient_Swatch_copy_3" data-name="New Gradient Swatch copy 3" x1="81.3" y1="590.93" x2="81.3" y2="579.85" gradientUnits="userSpaceOnUse">
      <stop offset="0" stop-color="#eae0ad"/>
      <stop offset=".3" stop-color="#d1c56b"/>
      <stop offset=".66" stop-color="#9d9350"/>
      <stop offset=".9" stop-color="#7f7641"/>
    </linearGradient>
    <linearGradient id="linear-gradient-2" x1="59.02" y1="456.72" x2="84.98" y2="456.72" gradientUnits="userSpaceOnUse">
      <stop offset=".3" stop-color="#d1c56b"/>
      <stop offset=".66" stop-color="#9d9350"/>
      <stop offset=".9" stop-color="#7f7641"/>
    </linearGradient>
    <linearGradient id="New_Gradient_Swatch_copy_6" data-name="New Gradient Swatch copy 6" x1="59.39" y1="319.42" x2="84.6" y2="319.42" gradientUnits="userSpaceOnUse">
      <stop offset=".54" stop-color="#dbc98b"/>
      <stop offset="1" stop-color="#ceb46b"/>
    </linearGradient>
    <linearGradient id="linear-gradient-3" x1="59.02" y1="319.42" x2="84.98" y2="319.42" gradientUnits="userSpaceOnUse">
      <stop offset=".3" stop-color="#d1c56b"/>
      <stop offset=".9" stop-color="#d1c56b"/>
    </linearGradient>
    <linearGradient id="New_Gradient_Swatch_copy_7" data-name="New Gradient Swatch copy 7" x1="65.12" y1="300.75" x2="78.87" y2="300.75" gradientUnits="userSpaceOnUse">
      <stop offset=".12" stop-color="#ece3c3"/>
      <stop offset=".55" stop-color="#dbc98b"/>
      <stop offset="1" stop-color="#ceb46b"/>
    </linearGradient>
    <linearGradient id="linear-gradient-4" x1="64.75" y1="300.75" x2="79.25" y2="300.75" gradientUnits="userSpaceOnUse">
      <stop offset=".3" stop-color="#d1c56b"/>
      <stop offset=".61" stop-color="#ded38e"/>
      <stop offset=".9" stop-color="#eae0ad"/>
    </linearGradient>
    <linearGradient id="linear-gradient-5" x1="65.12" y1="280.29" x2="78.87" y2="280.29" gradientUnits="userSpaceOnUse">
      <stop offset=".12" stop-color="#ece3c3"/>
      <stop offset=".71" stop-color="#dbc98b"/>
      <stop offset=".92" stop-color="#ceb46b"/>
    </linearGradient>
    <linearGradient id="linear-gradient-6" x1="64.75" y1="280.29" x2="79.25" y2="280.29" gradientUnits="userSpaceOnUse">
      <stop offset="0" stop-color="#eae0ad"/>
      <stop offset=".25" stop-color="#e5dba1"/>
      <stop offset=".71" stop-color="#d9ce82"/>
      <stop offset="1" stop-color="#d1c56b"/>
    </linearGradient>
    <linearGradient id="linear-gradient-7" x1="72" y1="590.93" x2="72" y2="579.85" xlink:href="#linear-gradient"/>
    <linearGradient id="linear-gradient-8" x1="59.02" y1="429.4" x2="84.98" y2="429.4" gradientUnits="userSpaceOnUse">
      <stop offset="0" stop-color="#d1c56b"/>
      <stop offset=".01" stop-color="#d8ce83"/>
      <stop offset=".03" stop-color="#e2dba4"/>
      <stop offset=".05" stop-color="#ebe6c0"/>
      <stop offset=".07" stop-color="#f2efd7"/>
      <stop offset=".1" stop-color="#f8f6e9"/>
      <stop offset=".13" stop-color="#fcfbf5"/>
      <stop offset=".17" stop-color="#fefefc"/>
      <stop offset=".27" stop-color="#fff"/>
      <stop offset=".39" stop-color="#e1dfd3"/>
      <stop offset=".81" stop-color="#7f7641"/>
    </linearGradient>
    <linearGradient id="linear-gradient-9" x1="64.75" y1="383.23" x2="64.75" y2="567.91" gradientUnits="userSpaceOnUse">
      <stop offset="0" stop-color="#ceb46b"/>
      <stop offset="1" stop-color="#7f7641"/>
    </linearGradient>
    <linearGradient id="linear-gradient-10" x1="63.44" y1="456.72" x2="66.06" y2="456.72" gradientUnits="userSpaceOnUse">
      <stop offset=".29" stop-color="#ddd59b"/>
      <stop offset=".46" stop-color="#c5bd83"/>
      <stop offset=".9" stop-color="#8c844b"/>
    </linearGradient>
    <linearGradient id="linear-gradient-11" x1="76.78" y1="456.72" x2="66.35" y2="456.72" gradientUnits="userSpaceOnUse">
      <stop offset=".29" stop-color="#ddd59b" stop-opacity="0"/>
      <stop offset=".3" stop-color="#ded69f" stop-opacity=".03"/>
      <stop offset=".64" stop-color="#fff" stop-opacity=".65"/>
      <stop offset=".73" stop-color="#d4d1bc" stop-opacity=".78"/>
      <stop offset=".9" stop-color="#8c844b"/>
    </linearGradient>
  </defs>
  <g class="cls-18">
    <g id="Layer_1_copy" data-name="Layer 1 copy">
      <polygon class="cls-9" points="65.99 587.3 59.39 592.08 59.39 574.52 65.99 574.52 65.99 587.3"/>
      <polygon class="cls-14" points="78.01 587.3 84.6 592.08 84.6 574.52 78.01 574.52 78.01 587.3"/>
      <path class="cls-5" d="M84.6,573.79c0,5.93-4.44,10.74-9.91,10.74h-5.39c-5.47,0-9.91-4.81-9.91-10.74v-244.87c0,2.72,25.21,2.72,25.21,0v244.87Z"/>
      <path class="cls-6" d="M84.6,328.92c0,2.72-25.21,2.72-25.21,0l5.73-21.04c0,2.88,13.74,2.88,13.74,0l5.73,21.04Z"/>
      <path class="cls-7" d="M78.87,307.88c0,2.88-13.75,2.88-13.75,0v-16.41c0,3.19,13.75,3.19,13.75,0v16.41Z"/>
      <path class="cls-2" d="M78.87,291.47c0,3.19-13.75,3.19-13.75,0l5.28-23.47c.48-1.7,2.7-1.7,3.18,0l5.28,23.47Z"/>
      <rect class="cls-16" x="69.11" y="584.52" width="5.78" height="6.46"/>
      <line class="cls-3" x1="59.02" y1="552.36" x2="84.98" y2="552.36"/>
      <line class="cls-4" x1="60.76" y1="518.86" x2="63.04" y2="518.86"/>
      <line class="cls-4" x1="60.76" y1="464.1" x2="63.04" y2="464.1"/>
      <line class="cls-4" x1="60.76" y1="454.98" x2="63.04" y2="454.98"/>
      <line class="cls-3" x1="59.02" y1="404.75" x2="84.98" y2="404.75"/>
      <line class="cls-3" x1="59.02" y1="358.07" x2="84.98" y2="358.07"/>
      <path class="cls-8" d="M73.59,268c-.48-1.7-2.7-1.7-3.18,0l-1.17,5.22h5.53l-1.17-5.22Z"/>
      <path class="cls-12" d="M84.98,328.92s0-.07-.01-.1l-5.72-20.99v-16.36s0-.06,0-.08l-5.29-23.49c-.27-.94-1.03-1.55-1.95-1.55s-1.69,.61-1.96,1.57l-5.26,23.4s-.03,.1-.03,.15v16.39l-5.71,20.97s-.01,.07-.01,.1v244.87c0,.2,.02,.39,.03,.59-.02,.04-.03,.09-.03,.14v17.57c0,.14,.08,.27,.21,.33,.05,.03,.11,.04,.17,.04,.08,0,.16-.02,.22-.07l6.6-4.79c.1-.07,.16-.18,.16-.3v-2.87c.75,.24,1.55,.39,2.36,.44v6.12c0,.21,.17,.38,.38,.38h5.78c.21,0,.38-.17,.38-.38v-6.12c.82-.05,1.61-.19,2.37-.44v2.87c0,.12,.06,.23,.16,.3l6.6,4.79c.06,.05,.14,.07,.22,.07,.06,0,.12-.01,.17-.04,.13-.06,.21-.19,.21-.33v-17.57s-.01-.09-.03-.14c0-.2,.03-.39,.03-.59v-244.87Z"/>
      <path class="cls-1" d="M73.59,268c-.48-1.7-2.7-1.7-3.18,0l-1.17,5.22h5.53l-1.17-5.22Z"/>
      <g>
        <rect class="cls-15" x="63.44" y="345.26" width="2.62" height="222.92"/>
        <path class="cls-17" d="M65.56,345.76v221.92h-1.62v-221.92h1.62m.5-.5h-2.62v222.92h2.62v-222.92h0Z"/>
      </g>
      <rect class="cls-13" x="66.06" y="345.26" width="12.97" height="222.92"/>
    </g>
    <g id="Small_Details" data-name="Small Details">
      <g>
        <line class="cls-11" x1="68.34" y1="561.49" x2="79.03" y2="561.49"/>
        <line class="cls-11" x1="68.34" y1="557.84" x2="79.03" y2="557.84"/>
      </g>
      <g>
        <line class="cls-11" x1="68.34" y1="543.24" x2="79.03" y2="543.24"/>
        <line class="cls-11" x1="68.34" y1="539.59" x2="79.03" y2="539.59"/>
      </g>
      <g>
        <line class="cls-11" x1="68.34" y1="388.11" x2="79.03" y2="388.11"/>
        <line class="cls-11" x1="68.34" y1="384.46" x2="79.03" y2="384.46"/>
      </g>
      <g>
        <line class="cls-11" x1="68.34" y1="378.98" x2="79.03" y2="378.98"/>
        <line class="cls-11" x1="68.34" y1="375.33" x2="79.03" y2="375.33"/>
      </g>
      <g>
        <line class="cls-11" x1="68.34" y1="342.48" x2="79.03" y2="342.48"/>
        <line class="cls-11" x1="68.34" y1="338.83" x2="79.03" y2="338.83"/>
      </g>
      <line class="cls-10" x1="68.34" y1="320.58" x2="73.97" y2="320.58"/>
    </g>
  </g>
</svg>